<?xml version="1.0" standalone="no"?>
<!DOCTYPE svg PUBLIC "-//W3C//DTD SVG 20010904//EN"
 "http://www.w3.org/TR/2001/REC-SVG-20010904/DTD/svg10.dtd">
<svg version="1.0" xmlns="http://www.w3.org/2000/svg"
 width="1668.000000pt" height="1668.000000pt" viewBox="0 0 1668.000000 1668.000000"
 preserveAspectRatio="xMidYMid meet">
<metadata>
Created by potrace 1.14, written by Peter Selinger 2001-2017
</metadata>
<g transform="translate(0.000000,1668.000000) scale(0.100000,-0.100000)"
fill="#000000" stroke="none">
<path d="M8850 15175 c0 -6 -35 -10 -87 -9 -49 0 -92 -2 -97 -5 -18 -9 -56 -7
-56 4 0 6 -3 7 -8 0 -4 -5 -38 -11 -77 -12 -79 -2 -104 -5 -122 -16 -7 -5 -13
-4 -13 2 0 5 -8 8 -17 6 -10 -2 -18 -4 -18 -5 0 -2 -132 -11 -192 -13 -24 -1
-43 -5 -43 -9 0 -4 -10 -8 -22 -8 -53 1 -117 -6 -124 -13 -12 -12 -26 -8 -18
6 6 9 4 9 -7 1 -8 -5 -23 -10 -34 -9 -11 0 -37 -5 -57 -12 -28 -9 -38 -9 -38
-1 0 9 -3 9 -12 0 -7 -7 -27 -12 -45 -12 -18 0 -33 -4 -33 -8 0 -5 -20 -8 -45
-7 -25 1 -45 -2 -45 -7 0 -5 -4 -7 -9 -4 -4 3 -22 2 -38 -3 -24 -7 -35 -5 -49
8 -11 9 -13 9 -6 2 19 -23 15 -26 -30 -28 -24 -1 -44 -6 -45 -10 -2 -5 -17 -8
-33 -7 -17 1 -30 -2 -30 -8 0 -5 -5 -6 -10 -3 -6 4 -7 12 -3 18 4 6 -6 2 -21
-11 -16 -12 -33 -19 -38 -16 -5 3 -16 0 -25 -8 -14 -11 -16 -11 -9 2 4 8 0 6
-8 -4 -10 -13 -16 -15 -16 -7 0 11 -3 11 -15 1 -8 -7 -15 -10 -15 -7 0 3 -15
0 -34 -8 -18 -8 -36 -12 -39 -9 -3 3 -15 0 -27 -6 -17 -9 -21 -9 -15 0 4 7 -5
4 -21 -6 -21 -15 -26 -15 -20 -4 4 9 2 8 -7 -2 -11 -14 -16 -15 -26 -5 -9 9
-14 9 -19 0 -7 -10 -82 -35 -109 -36 -7 0 -13 -4 -13 -9 0 -5 -6 -8 -12 -7
-23 3 -78 -13 -78 -23 0 -5 -4 -7 -8 -4 -4 2 -14 1 -22 -4 -9 -5 -20 -4 -28 2
-7 6 -12 7 -11 2 4 -21 -2 -26 -18 -13 -9 8 -14 9 -10 3 8 -13 -19 -27 -34
-18 -5 3 -9 1 -9 -5 0 -6 -6 -8 -14 -5 -7 3 -16 -2 -20 -11 -3 -9 -10 -14 -16
-10 -5 3 -19 1 -31 -6 -17 -9 -20 -8 -14 3 3 7 0 5 -8 -4 -8 -10 -17 -15 -20
-11 -4 3 -7 1 -7 -7 0 -9 -3 -10 -14 -1 -10 9 -15 8 -20 -4 -3 -8 -17 -15 -31
-15 -14 0 -25 -4 -25 -9 0 -5 -8 -8 -17 -7 -10 2 -24 -3 -31 -11 -8 -7 -17
-11 -22 -8 -4 3 -20 -2 -36 -10 -15 -7 -31 -12 -36 -9 -4 3 -8 0 -8 -5 0 -6
-8 -11 -17 -11 -10 0 -26 -7 -36 -15 -11 -7 -25 -11 -33 -8 -8 3 -14 0 -14 -7
0 -6 -6 -10 -12 -7 -7 2 -19 -3 -26 -12 -8 -9 -11 -11 -8 -4 4 8 -4 6 -24 -3
-16 -9 -35 -12 -41 -8 -7 4 -9 3 -6 -3 7 -11 -28 -27 -52 -23 -7 1 -10 -3 -6
-9 4 -7 0 -8 -11 -4 -12 4 -15 3 -10 -6 4 -6 4 -11 -1 -10 -4 1 -21 -3 -36 -9
-16 -7 -33 -12 -38 -12 -5 0 -9 -4 -9 -10 0 -5 -8 -10 -18 -10 -10 0 -24 -6
-31 -12 -11 -10 -12 -10 -7 -1 5 9 2 11 -8 7 -9 -3 -13 -10 -10 -15 3 -5 -1
-9 -8 -9 -7 0 -25 -6 -40 -14 -20 -11 -28 -11 -32 -3 -2 7 -5 4 -5 -5 -1 -10
-8 -18 -16 -18 -8 0 -15 -5 -15 -11 0 -5 -5 -7 -12 -3 -6 4 -17 -1 -25 -11
-13 -18 -13 -18 -14 1 0 18 -1 18 -10 -1 -12 -24 -64 -50 -80 -39 -7 4 -9 3
-5 -4 3 -6 1 -14 -5 -18 -6 -3 -15 -1 -19 6 -5 8 -9 5 -13 -10 -3 -12 -12 -20
-19 -18 -7 3 -21 -4 -32 -13 -10 -10 -23 -16 -28 -13 -4 3 -11 -2 -14 -10 -3
-9 -10 -14 -14 -11 -5 3 -11 1 -15 -5 -4 -6 -11 -8 -16 -5 -5 4 -9 1 -9 -5 0
-6 -13 -16 -30 -21 -16 -6 -30 -16 -30 -21 0 -6 -6 -5 -15 2 -13 11 -14 10 -9
-4 4 -12 0 -16 -16 -16 -14 0 -19 -4 -14 -12 4 -7 4 -10 -1 -6 -12 11 -47 -11
-38 -25 5 -8 2 -8 -9 1 -13 10 -17 10 -22 -3 -3 -9 -10 -14 -15 -11 -5 3 -12
-1 -15 -10 -4 -9 -13 -14 -21 -10 -8 3 -15 1 -15 -4 0 -5 -15 -17 -32 -26 -18
-9 -35 -20 -38 -23 -3 -3 -16 -15 -29 -26 -16 -13 -22 -15 -17 -5 5 9 2 8 -7
-2 -8 -10 -17 -15 -20 -11 -4 3 -7 1 -7 -5 0 -7 -6 -11 -12 -9 -7 1 -12 -4
-11 -10 2 -7 0 -12 -5 -11 -4 1 -17 -3 -30 -10 -12 -7 -28 -10 -35 -6 -7 5 -7
2 2 -9 12 -15 12 -17 -3 -11 -9 3 -16 1 -16 -6 0 -6 -4 -8 -10 -5 -5 3 -10 1
-10 -5 0 -7 -7 -9 -16 -6 -8 3 -12 2 -9 -3 6 -11 -35 -42 -46 -35 -4 2 -11 -1
-15 -7 -4 -8 -3 -9 4 -5 7 4 12 3 12 -1 0 -5 -9 -14 -20 -20 -16 -11 -18 -10
-13 4 4 11 3 14 -5 9 -7 -4 -12 -14 -12 -23 0 -13 -2 -14 -17 -2 -10 8 -14 9
-10 2 4 -6 0 -18 -8 -25 -9 -7 -25 -22 -37 -33 -11 -11 -18 -14 -14 -8 5 9 2
11 -8 7 -9 -3 -13 -10 -10 -15 3 -5 0 -9 -7 -9 -6 0 -18 -8 -26 -17 -9 -12
-12 -13 -8 -3 4 8 -2 4 -13 -9 -10 -13 -24 -21 -30 -17 -6 3 -14 1 -18 -5 -5
-8 -2 -10 7 -5 8 4 5 1 -5 -6 -10 -7 -26 -21 -35 -30 -8 -10 -21 -18 -27 -18
-6 0 -20 -11 -30 -25 -10 -14 -24 -25 -31 -25 -7 0 -13 -5 -13 -11 0 -5 -4 -8
-8 -5 -5 3 -14 -4 -22 -14 -8 -10 -17 -17 -22 -14 -4 3 -8 -2 -8 -11 0 -9 -5
-13 -10 -10 -6 3 -13 -1 -16 -10 -4 -9 -13 -14 -21 -11 -8 3 -12 2 -9 -2 3 -5
-14 -26 -36 -48 -23 -21 -38 -32 -33 -24 5 8 -6 0 -23 -18 -19 -20 -36 -31
-43 -26 -7 4 -9 3 -5 -4 3 -6 1 -14 -5 -18 -6 -3 -15 0 -20 7 -5 8 -9 9 -9 3
0 -5 6 -16 13 -23 10 -11 10 -13 0 -7 -7 4 -13 2 -13 -4 0 -6 -4 -8 -10 -5 -6
3 -10 1 -10 -5 0 -6 -4 -8 -10 -5 -6 3 -7 -1 -4 -10 4 -9 3 -15 -2 -13 -11 3
-80 -63 -77 -74 2 -4 0 -7 -5 -7 -17 3 -33 -2 -29 -8 3 -5 -10 -19 -29 -33
-18 -14 -34 -30 -34 -37 0 -7 -6 -10 -13 -8 -6 3 -17 -5 -22 -17 -7 -16 -18
-22 -35 -21 -14 1 -19 -1 -12 -3 17 -8 15 -27 -2 -21 -10 4 -13 1 -10 -8 3 -7
-4 -18 -15 -25 -11 -6 -20 -16 -18 -23 1 -6 -8 -13 -21 -15 -13 -2 -22 -8 -20
-14 4 -12 -117 -138 -132 -138 -5 0 -9 -6 -7 -12 1 -7 -3 -12 -10 -11 -8 2
-10 -4 -6 -14 4 -11 3 -14 -5 -9 -11 7 -17 -6 -13 -27 1 -5 -3 -6 -9 -2 -5 3
-13 -1 -16 -9 -3 -9 -13 -16 -21 -16 -8 0 -12 -4 -9 -9 4 -5 -7 -22 -23 -37
-17 -15 -27 -33 -24 -38 4 -6 3 -8 -1 -4 -10 8 -66 -54 -66 -73 0 -11 -2 -11
-10 1 -8 12 -10 10 -10 -8 0 -13 -4 -21 -9 -18 -5 3 -12 -6 -16 -21 -4 -19 -9
-23 -15 -14 -5 10 -10 4 -15 -18 -3 -17 -11 -31 -16 -31 -6 0 -7 6 -3 13 4 6
3 8 -1 4 -5 -4 -10 -15 -11 -24 -2 -9 -10 -20 -18 -25 -9 -5 -16 -18 -16 -30
0 -14 -5 -18 -15 -14 -10 4 -15 -1 -15 -15 0 -11 -4 -17 -10 -14 -5 3 -10 1
-10 -6 0 -6 -8 -18 -18 -25 -9 -7 -18 -17 -18 -23 -1 -6 -2 -16 -3 -22 0 -5
-6 -7 -13 -3 -7 5 -9 2 -6 -8 4 -8 -2 -21 -13 -29 -10 -7 -19 -19 -19 -26 0
-7 -9 -18 -19 -25 -11 -6 -17 -18 -13 -26 3 -10 1 -13 -6 -8 -7 4 -12 1 -12
-8 0 -9 -4 -16 -10 -16 -5 0 -10 -6 -10 -13 0 -7 -9 -19 -19 -27 -11 -7 -18
-17 -15 -22 3 -4 -5 -12 -18 -17 -13 -6 -17 -10 -10 -10 19 -1 14 -13 -18 -50
-17 -18 -30 -38 -30 -43 0 -5 -7 -16 -15 -25 -8 -8 -12 -19 -9 -25 4 -6 2 -8
-3 -5 -6 4 -16 -6 -23 -22 -6 -16 -18 -32 -27 -35 -8 -3 -11 -10 -8 -16 3 -5
1 -10 -6 -10 -7 0 -9 -3 -6 -7 4 -3 -1 -12 -11 -19 -9 -7 -17 -21 -17 -31 0
-10 -5 -17 -12 -16 -7 2 -10 -4 -7 -12 4 -8 -1 -17 -9 -21 -9 -3 -13 -12 -10
-20 3 -8 -4 -18 -18 -23 -13 -5 -18 -10 -10 -10 10 -1 11 -4 2 -14 -6 -8 -8
-17 -4 -20 3 -4 -2 -9 -11 -13 -9 -3 -13 -10 -10 -15 3 -5 0 -9 -5 -9 -6 0
-11 -7 -11 -16 0 -8 -4 -13 -9 -10 -5 3 -12 -1 -15 -10 -4 -10 -2 -13 7 -8 9
6 9 5 0 -8 -7 -8 -9 -19 -5 -23 4 -5 1 -5 -5 -1 -11 6 -19 -7 -10 -17 1 -2 -6
-11 -16 -21 -9 -10 -15 -22 -12 -27 4 -5 1 -9 -5 -9 -6 0 -8 -5 -4 -12 4 -6 3
-8 -3 -5 -10 6 -29 -37 -25 -56 1 -4 -5 -10 -13 -13 -8 -4 -15 -15 -15 -26 0
-10 -4 -16 -10 -13 -6 3 -7 -1 -4 -9 3 -9 1 -16 -6 -16 -6 0 -9 -4 -5 -9 3 -5
1 -12 -5 -16 -6 -4 -7 -11 -4 -17 5 -7 1 -9 -9 -5 -9 3 -19 1 -23 -5 -4 -6 -3
-8 4 -4 7 4 10 -2 9 -14 -1 -13 -6 -19 -16 -15 -12 5 -12 3 0 -12 12 -15 12
-16 -3 -10 -10 3 -20 2 -23 -4 -4 -5 -3 -9 2 -8 20 3 23 -2 9 -17 -9 -8 -14
-20 -10 -25 3 -5 -2 -12 -10 -15 -9 -3 -16 -10 -16 -16 0 -5 6 -6 13 -2 8 6 8
3 -1 -9 -8 -9 -10 -22 -6 -29 6 -11 5 -10 -8 0 -14 11 -16 10 -14 -12 2 -18
-2 -26 -13 -27 -12 0 -13 -2 -2 -6 10 -4 8 -9 -10 -20 -13 -8 -16 -12 -6 -9
16 5 16 4 2 -18 -8 -12 -12 -26 -8 -29 3 -4 1 -7 -6 -7 -7 0 -9 -5 -5 -12 5
-8 2 -9 -11 -4 -15 5 -16 4 -6 -8 8 -10 9 -16 1 -21 -6 -3 -8 -11 -5 -16 4 -5
1 -9 -6 -9 -7 0 -9 -3 -6 -7 4 -3 -1 -12 -11 -20 -9 -8 -11 -12 -4 -8 15 8 16
-11 1 -20 -6 -4 -8 -13 -5 -21 7 -17 -10 -19 -18 -1 -3 6 -2 -1 1 -17 3 -17 2
-27 -4 -23 -5 3 -8 -7 -7 -24 1 -16 -2 -26 -7 -23 -5 3 -9 -2 -9 -10 0 -9 -6
-16 -12 -16 -10 0 -9 -3 1 -9 8 -5 9 -11 3 -15 -6 -4 -9 -15 -7 -26 3 -14 -1
-17 -12 -13 -12 5 -15 2 -10 -10 3 -9 2 -17 -4 -17 -6 0 -7 -5 -4 -10 4 -6 1
-18 -7 -27 -11 -14 -11 -15 0 -9 10 6 9 0 -3 -23 -9 -17 -13 -37 -9 -43 5 -7
3 -8 -6 -3 -10 6 -12 4 -7 -8 4 -12 1 -17 -11 -18 -14 0 -14 -2 2 -8 18 -7 18
-8 2 -14 -9 -4 -14 -12 -11 -18 4 -5 -1 -19 -11 -30 -13 -15 -14 -19 -3 -19 9
0 10 -3 3 -8 -6 -4 -10 -15 -8 -25 2 -15 0 -16 -12 -6 -19 16 -18 4 2 -15 14
-15 14 -16 0 -16 -9 0 -17 -8 -17 -17 -1 -10 -2 -31 -3 -47 -1 -16 -7 -31 -14
-34 -7 -2 -10 -8 -6 -13 3 -5 2 -15 -3 -21 -4 -7 -8 -21 -9 -30 -1 -10 -2 -25
-3 -34 0 -8 -5 -13 -9 -10 -5 3 -9 -1 -9 -9 0 -8 4 -12 8 -9 4 2 11 -1 15 -7
4 -8 3 -9 -4 -5 -12 7 -35 -27 -26 -37 3 -3 2 -12 -2 -19 -5 -7 -10 -29 -11
-48 -3 -47 -8 -68 -16 -76 -4 -4 -7 -16 -7 -26 0 -11 -3 -17 -8 -14 -4 2 -7
-16 -6 -40 1 -37 -2 -44 -15 -39 -8 3 -12 3 -8 -1 4 -4 1 -14 -6 -23 -11 -14
-10 -14 6 -2 9 7 17 10 17 5 0 -16 -25 -79 -35 -86 -6 -5 -5 -8 4 -8 11 0 11
-3 0 -17 -10 -11 -10 -14 -1 -9 15 9 16 -6 0 -22 -7 -7 -8 -12 -4 -12 5 0 3
-6 -3 -14 -7 -8 -8 -17 -3 -20 5 -3 7 -17 5 -31 -3 -14 -10 -22 -16 -18 -6 4
-7 1 -1 -8 5 -8 9 -25 9 -37 1 -22 0 -22 -12 -6 -15 20 -18 7 -4 -15 6 -9 6
-22 0 -32 -6 -12 -5 -20 2 -24 7 -5 6 -12 -4 -23 -19 -23 -23 -106 -5 -97 7 4
2 -3 -12 -15 -14 -12 -19 -19 -12 -15 10 5 13 0 10 -21 -1 -16 -7 -32 -13 -36
-6 -5 -5 -8 3 -8 8 0 10 -5 6 -12 -7 -11 -14 -94 -17 -188 -1 -19 -6 -38 -12
-42 -7 -5 -6 -11 3 -16 15 -10 5 -45 -10 -36 -6 4 -5 -3 1 -15 7 -11 8 -21 4
-21 -4 0 -1 -5 7 -10 11 -7 11 -10 2 -10 -7 0 -10 -5 -7 -11 4 -6 -1 -17 -11
-24 -18 -13 -17 -14 6 -9 l25 5 -25 -15 c-19 -12 -21 -15 -7 -16 9 0 17 -5 17
-11 0 -5 -6 -7 -13 -3 -8 5 -8 2 2 -9 12 -15 11 -17 -5 -17 -12 0 -15 -3 -8
-8 15 -10 25 -64 10 -55 -6 4 -5 -1 3 -10 11 -14 11 -17 0 -17 -10 0 -10 -3
-1 -12 16 -16 15 -31 -1 -22 -9 6 -9 4 1 -7 17 -19 15 -29 -6 -23 -12 4 -14 3
-4 -4 14 -10 24 -62 12 -62 -4 0 -4 -18 0 -40 6 -32 4 -40 -7 -40 -12 0 -11
-3 2 -16 12 -13 13 -19 5 -24 -9 -6 -9 -9 1 -13 10 -4 9 -6 -3 -6 -10 -1 -18
-6 -18 -12 0 -5 4 -8 8 -5 4 2 13 -4 20 -14 9 -14 9 -21 0 -26 -7 -4 -8 -3 -4
4 5 8 1 10 -10 5 -14 -5 -15 -7 -1 -15 10 -5 14 -15 10 -25 -5 -12 -3 -14 7
-8 9 6 11 4 5 -5 -12 -19 -13 -80 -2 -80 5 0 4 -7 -3 -15 -10 -12 -10 -15 0
-15 10 0 10 -3 0 -15 -10 -12 -10 -15 0 -15 9 0 9 -4 -1 -17 -12 -14 -12 -16
0 -8 11 6 13 3 9 -13 -4 -13 -1 -22 5 -22 7 0 3 -7 -7 -15 -11 -8 -14 -15 -8
-15 7 0 12 -9 12 -21 0 -13 -4 -18 -12 -14 -7 4 -5 0 4 -8 14 -11 15 -16 5
-27 -10 -10 -9 -11 2 -5 11 6 13 4 8 -8 -3 -9 -2 -19 4 -23 6 -4 5 -12 -3 -22
-11 -13 -11 -14 1 -7 11 6 13 4 8 -9 -4 -10 -2 -27 4 -38 6 -12 7 -18 1 -14
-5 3 -12 -1 -15 -9 -4 -9 -1 -12 7 -9 7 3 13 -2 13 -10 0 -8 -5 -12 -11 -9 -6
4 -3 -3 7 -14 13 -14 15 -23 7 -28 -7 -5 -8 -11 -1 -19 6 -7 6 -17 1 -26 -6
-9 -3 -19 8 -28 9 -7 11 -11 4 -7 -6 3 -12 1 -12 -4 0 -6 4 -11 10 -11 5 0 6
-7 3 -17 -5 -12 -3 -14 8 -8 12 8 12 6 0 -8 -7 -9 -18 -14 -24 -10 -6 3 -7 1
-3 -6 4 -6 11 -9 16 -6 5 3 11 1 14 -4 4 -5 2 -12 -4 -16 -5 -3 -10 -12 -10
-18 0 -7 4 -6 11 3 9 12 10 11 6 -7 -3 -13 -2 -23 2 -23 3 0 6 -20 6 -45 -1
-25 3 -45 7 -45 4 0 8 -15 8 -34 0 -19 5 -38 10 -41 7 -4 7 -13 0 -26 -8 -14
-8 -21 2 -24 8 -3 13 -21 12 -45 0 -21 3 -37 8 -34 4 3 8 -4 8 -16 0 -14 -4
-19 -12 -15 -7 4 -5 0 4 -8 14 -11 15 -16 5 -27 -8 -8 -8 -11 -1 -7 7 4 14 0
17 -7 3 -8 1 -17 -6 -20 -9 -3 -8 -5 1 -5 7 -1 10 -5 7 -11 -3 -5 0 -10 7 -10
9 0 9 -3 -2 -10 -9 -6 -10 -10 -3 -10 6 0 10 -9 8 -20 -2 -11 0 -20 6 -20 5 0
9 -11 9 -25 0 -14 3 -25 8 -25 12 0 11 -50 -2 -50 -6 0 -3 -5 7 -11 9 -6 15
-14 12 -20 -4 -5 -1 -9 4 -9 6 0 11 -5 11 -11 0 -5 -5 -7 -11 -4 -6 4 -5 -3 3
-14 11 -18 11 -23 -2 -32 -13 -9 -12 -10 3 -5 9 3 18 1 18 -4 2 -12 2 -12 19
-87 8 -35 19 -63 25 -63 5 0 3 -5 -5 -10 -12 -8 -12 -10 -1 -10 8 0 12 -3 8
-6 -3 -4 1 -20 9 -36 9 -16 13 -36 10 -43 -2 -7 2 -16 10 -19 8 -3 14 -10 14
-16 0 -6 -6 -8 -12 -4 -7 4 -5 -1 4 -12 10 -11 19 -29 21 -40 1 -10 6 -25 10
-31 5 -8 4 -13 -2 -13 -6 0 -11 -5 -11 -11 0 -5 4 -8 8 -5 4 2 14 1 22 -5 13
-8 13 -9 0 -9 -10 0 -11 -3 -3 -11 6 -6 9 -18 6 -25 -3 -8 0 -14 6 -14 6 0 11
-9 11 -21 0 -13 4 -18 13 -13 9 6 9 4 -1 -8 -10 -13 -10 -17 2 -21 9 -4 13
-17 12 -37 -1 -17 2 -34 7 -37 6 -3 7 -1 3 5 -4 7 -2 12 3 12 16 0 14 -10 -7
-34 -16 -20 -16 -20 1 -7 9 7 17 12 18 10 0 -2 2 -13 4 -23 2 -10 9 -22 15
-26 7 -4 11 -10 10 -14 -1 -4 0 -16 3 -27 3 -10 6 -22 6 -24 0 -3 8 -19 16
-35 9 -17 13 -36 9 -42 -4 -7 -3 -8 4 -4 7 4 12 1 12 -6 1 -7 9 -31 20 -53 10
-22 16 -43 14 -47 -3 -5 0 -8 5 -8 6 0 11 -7 11 -15 0 -8 4 -15 8 -15 8 0 12
-14 13 -53 0 -9 4 -15 10 -12 8 6 13 -8 10 -27 0 -5 3 -8 8 -8 5 0 8 -11 7
-24 -2 -17 1 -23 11 -19 8 3 13 2 11 -3 -1 -5 4 -20 11 -33 7 -13 8 -21 3 -17
-6 3 -14 2 -17 -4 -4 -6 -3 -10 2 -9 23 4 32 -2 26 -18 -4 -11 -3 -14 5 -9 8
5 12 0 12 -13 0 -10 3 -21 7 -23 14 -6 44 -68 38 -78 -3 -6 -2 -10 3 -10 10 0
48 -70 44 -82 -1 -5 3 -8 9 -8 6 0 8 -7 5 -16 -3 -8 -2 -12 4 -9 9 6 14 -8 11
-27 0 -5 3 -8 8 -8 9 0 56 -90 53 -102 -1 -5 2 -8 8 -8 5 0 10 -7 10 -15 0 -8
5 -15 11 -15 5 0 7 -4 4 -10 -3 -5 -1 -10 6 -10 7 0 10 -3 6 -6 -3 -4 1 -13 9
-21 8 -9 12 -25 9 -37 -2 -11 -2 -15 1 -8 8 18 34 -4 34 -29 0 -11 5 -19 10
-19 6 0 10 -9 10 -20 0 -11 4 -20 10 -20 5 0 17 -17 27 -38 9 -20 22 -40 27
-44 6 -4 8 -8 4 -8 -5 0 2 -11 13 -24 12 -13 20 -27 20 -30 -1 -4 8 -16 19
-28 11 -12 20 -26 20 -31 0 -4 14 -28 30 -52 17 -24 30 -48 30 -54 0 -6 4 -11
8 -11 5 0 15 -12 23 -27 8 -16 21 -33 29 -40 8 -6 12 -14 9 -18 -4 -3 7 -20
22 -36 16 -17 29 -37 29 -44 0 -7 7 -16 16 -19 8 -3 12 -10 9 -16 -3 -5 -1
-10 4 -10 6 0 11 -5 11 -11 0 -7 10 -20 21 -30 12 -11 19 -25 16 -34 -4 -8 -2
-14 2 -12 13 3 52 -44 45 -55 -3 -4 0 -7 8 -6 7 2 12 -5 11 -15 0 -10 1 -16 4
-13 3 2 15 -5 28 -17 17 -17 20 -25 11 -36 -8 -11 -8 -13 2 -7 7 4 12 2 12 -4
0 -6 4 -8 10 -5 5 3 10 -1 10 -9 0 -9 9 -21 20 -28 11 -7 20 -18 20 -25 0 -6
10 -19 22 -27 12 -9 17 -16 10 -16 -7 0 -2 -11 12 -23 14 -13 23 -27 19 -30
-3 -4 2 -7 12 -7 10 0 16 -2 13 -5 -3 -3 12 -24 33 -45 22 -22 39 -42 39 -44
0 -6 25 -37 48 -62 12 -12 12 -18 1 -32 -11 -14 -11 -15 1 -4 19 16 30 15 30
-4 0 -8 5 -12 10 -9 5 3 10 0 10 -7 0 -8 8 -20 18 -29 9 -8 30 -31 46 -52 16
-20 34 -33 40 -30 6 3 8 3 4 -1 -4 -5 4 -19 18 -33 13 -13 21 -29 18 -35 -4
-6 -2 -8 4 -4 10 6 62 -41 62 -56 0 -5 7 -8 15 -8 8 0 15 -6 15 -14 0 -7 14
-23 30 -36 17 -13 30 -29 30 -36 0 -8 7 -14 16 -14 8 0 13 -4 10 -9 -3 -5 4
-11 15 -14 16 -4 20 -11 15 -24 -4 -9 -4 -14 0 -11 10 11 44 -11 44 -27 0 -9
9 -15 22 -15 12 0 19 -3 15 -6 -7 -7 17 -34 31 -34 5 0 15 -11 22 -25 7 -14
16 -25 20 -25 4 0 16 -8 28 -18 16 -14 18 -22 10 -30 -8 -8 -5 -9 11 -5 15 4
21 1 21 -11 0 -10 4 -14 10 -11 9 6 15 -8 11 -29 -1 -5 5 -3 14 4 9 7 15 9 14
4 -4 -21 2 -35 12 -29 6 4 17 -2 25 -14 9 -12 20 -19 25 -16 8 5 13 -14 11
-36 -1 -4 8 -5 18 -2 14 4 20 0 20 -11 0 -10 4 -14 10 -11 5 3 10 2 10 -3 0
-5 18 -22 40 -37 22 -15 37 -31 35 -36 -3 -4 0 -11 6 -15 8 -4 9 -3 5 4 -10
17 3 15 20 -2 8 -8 14 -23 15 -33 0 -10 3 -13 5 -6 3 7 12 9 20 6 12 -4 12 -8
2 -21 -11 -13 -10 -15 4 -9 12 4 27 -2 44 -18 15 -14 30 -22 35 -19 5 3 9 -2
9 -11 0 -9 4 -13 10 -10 6 3 10 1 10 -5 0 -6 4 -9 9 -5 6 3 8 -3 6 -14 -3 -14
1 -18 16 -14 10 3 19 0 19 -6 0 -6 7 -11 15 -11 8 0 15 -5 15 -11 0 -5 5 -7
12 -3 7 4 8 3 4 -4 -4 -7 -3 -12 3 -12 6 0 18 -12 26 -27 9 -16 14 -20 11 -10
-3 9 -1 17 4 17 5 0 12 -9 15 -21 5 -15 13 -19 27 -16 16 5 17 3 7 -9 -10 -12
-10 -15 2 -12 8 2 13 -3 11 -11 -3 -12 -1 -12 14 0 16 13 17 12 12 -8 -4 -13
-2 -23 3 -23 5 0 9 5 9 10 0 6 5 10 11 10 6 0 9 -6 6 -14 -8 -20 4 -28 20 -14
11 9 15 7 20 -10 3 -12 9 -20 13 -17 5 3 15 -2 23 -10 9 -8 20 -15 25 -15 6 0
13 -7 16 -16 4 -9 13 -14 22 -10 8 3 12 2 9 -3 -3 -5 4 -12 15 -16 11 -3 20
-11 20 -17 0 -5 7 -7 16 -4 8 3 12 2 9 -4 -3 -6 -1 -10 5 -10 6 0 8 -5 5 -10
-4 -6 -3 -10 2 -9 18 3 34 -1 29 -9 -2 -4 5 -9 17 -9 12 -1 26 -8 32 -16 5 -8
16 -12 24 -9 8 3 11 0 7 -7 -5 -7 1 -11 14 -11 12 0 18 -4 15 -10 -3 -5 1 -10
9 -10 9 0 16 -5 16 -11 0 -5 5 -7 10 -4 6 3 10 1 10 -5 0 -7 7 -10 15 -6 9 3
15 0 15 -9 0 -8 3 -14 8 -13 15 3 42 -15 35 -25 -3 -5 -1 -7 5 -3 6 3 13 2 17
-4 4 -6 11 -8 16 -5 5 4 9 1 9 -5 0 -6 4 -9 9 -6 5 3 11 -1 15 -9 3 -8 15 -15
26 -15 12 0 18 -4 15 -10 -3 -5 3 -10 15 -10 12 0 28 -7 37 -15 8 -8 19 -12
24 -9 6 3 13 -4 16 -15 5 -18 8 -19 21 -9 12 10 14 10 8 1 -6 -12 5 -18 27
-14 4 0 7 -3 7 -9 0 -5 7 -10 15 -10 8 0 15 -4 15 -10 0 -5 8 -10 18 -10 10 0
28 -9 40 -20 12 -12 22 -18 22 -14 0 3 11 -1 25 -10 13 -9 30 -16 38 -16 7 0
22 -8 33 -17 10 -10 28 -20 39 -21 11 -2 22 -8 23 -13 2 -5 12 -9 21 -9 10 0
21 -3 25 -8 4 -4 13 -7 19 -7 7 -1 11 -7 9 -14 -1 -7 1 -10 6 -7 5 3 21 -2 36
-10 16 -7 35 -14 42 -14 8 0 14 -4 14 -10 0 -5 6 -10 14 -10 16 0 99 -42 104
-52 2 -4 9 -5 17 -2 7 3 16 0 20 -5 3 -6 11 -9 16 -6 5 4 9 1 9 -4 0 -6 9 -11
20 -11 11 0 20 -4 20 -9 0 -6 9 -8 20 -6 11 2 20 0 20 -5 0 -9 39 -25 53 -22
4 1 7 -3 7 -9 0 -5 4 -8 9 -4 5 3 12 1 16 -5 4 -6 11 -8 16 -5 5 4 9 1 9 -4 0
-6 9 -11 19 -11 11 0 23 -5 26 -10 4 -6 10 -8 15 -5 5 3 11 1 15 -5 4 -6 11
-8 16 -5 5 4 9 1 9 -4 0 -6 9 -11 21 -11 11 0 30 -5 42 -12 12 -7 33 -14 47
-15 14 -2 30 -9 35 -16 6 -7 24 -13 40 -15 17 -2 32 -8 33 -13 2 -5 12 -9 22
-9 9 0 34 -7 54 -15 20 -8 36 -13 36 -10 0 3 10 -1 23 -9 12 -7 32 -13 45 -11
12 1 22 -2 22 -7 0 -4 6 -8 14 -8 8 0 17 -6 19 -12 4 -10 6 -10 6 -1 1 9 10 8
35 -2 18 -8 36 -11 40 -8 3 4 6 1 6 -6 0 -9 9 -12 25 -9 14 3 25 2 25 -3 0 -8
19 -16 62 -23 15 -3 31 -7 35 -9 5 -3 25 -8 47 -11 21 -4 43 -9 49 -13 10 -6
25 -9 82 -16 11 -1 23 -6 27 -11 3 -5 17 -10 31 -10 14 -1 33 -8 43 -16 15
-12 16 -13 9 -1 -6 11 -4 13 11 7 32 -14 84 -24 84 -17 0 3 5 -1 10 -9 9 -13
10 -13 10 0 0 11 2 12 8 2 5 -7 25 -13 45 -14 20 -1 37 -4 37 -7 0 -6 14 -8
90 -13 19 -2 38 -7 42 -12 6 -9 36 -14 105 -17 22 -1 31 -5 26 -13 -4 -6 1 -5
10 3 11 8 17 9 17 3 0 -6 7 -9 15 -6 8 4 15 1 15 -6 0 -9 3 -10 13 -1 8 6 17
8 21 4 3 -4 25 -8 47 -10 23 -2 50 -8 61 -14 16 -8 19 -8 13 1 -5 9 -2 10 11
3 11 -5 38 -9 62 -9 23 1 42 -1 42 -5 0 -3 11 -5 25 -4 14 2 25 -2 25 -8 0 -8
3 -8 12 1 6 6 18 8 27 4 9 -4 30 -7 46 -7 17 0 33 -4 37 -10 5 -6 8 -6 8 2 0
13 37 6 59 -11 11 -8 13 -8 7 1 -4 7 -2 13 3 13 6 0 11 -6 11 -12 0 -9 4 -8
10 2 5 8 10 11 10 5 0 -6 43 -11 102 -13 55 -1 105 -5 110 -8 4 -3 8 0 8 7 0
8 3 9 13 0 8 -6 17 -8 21 -4 4 4 11 1 16 -7 6 -8 10 -10 10 -5 0 11 50 12 68
1 6 -3 13 -2 17 4 4 7 12 7 25 0 25 -13 33 -13 24 3 -6 9 -4 9 7 1 16 -12 237
-12 257 0 7 4 12 2 12 -4 0 -8 6 -8 20 0 11 6 20 7 20 3 0 -8 23 -8 148 0 32
2 52 0 52 -7 0 -8 3 -8 8 0 4 6 42 10 89 10 46 -1 83 3 83 8 0 5 6 3 13 -3 8
-6 16 -8 20 -5 3 3 50 7 104 9 54 2 98 4 98 5 0 1 17 3 38 4 22 2 37 -2 37 -8
0 -8 3 -7 8 1 4 6 16 13 27 15 11 1 23 8 27 13 5 6 8 6 8 -1 0 -11 46 -13 66
-2 5 2 24 4 42 4 17 -1 32 2 32 5 0 3 14 3 31 1 20 -3 34 0 40 9 7 11 9 11 9
1 0 -8 5 -10 12 -6 6 4 25 9 42 10 31 3 71 11 71 14 0 1 20 3 45 6 85 8 95 9
108 17 7 5 12 3 12 -5 0 -9 3 -9 8 -2 4 6 17 10 30 9 12 -1 22 2 22 7 0 5 13
7 29 5 16 -3 32 -2 36 1 6 6 21 10 60 15 12 2 25 6 30 8 6 3 24 6 40 7 17 1
45 7 62 13 18 6 37 8 43 4 5 -3 10 -1 10 5 0 6 5 8 11 4 6 -3 15 0 20 7 8 12
11 12 19 -1 5 -8 10 -10 10 -4 0 6 7 11 15 12 8 1 22 3 30 4 8 1 15 5 15 9 0
4 9 6 20 4 11 -2 20 1 20 7 0 7 5 6 15 -2 12 -10 16 -9 21 3 3 9 12 13 20 10
8 -3 14 -1 14 5 0 5 11 8 25 7 14 -2 27 1 31 6 3 5 10 7 15 4 5 -4 9 -1 9 5 0
6 5 8 10 5 6 -4 18 -1 27 7 12 9 15 9 9 1 -10 -17 -7 -16 40 6 28 14 41 16 46
8 6 -9 8 -9 8 -1 0 11 11 15 70 31 8 2 21 5 28 5 6 1 12 5 12 9 0 4 11 6 25 5
13 -2 22 0 20 4 -3 5 2 11 11 14 10 4 13 2 8 -7 -6 -9 -4 -8 8 1 9 7 29 15 44
18 16 3 31 8 34 12 3 4 11 7 18 8 29 2 33 5 26 17 -6 9 -4 9 8 -1 11 -9 18
-10 23 -2 3 6 10 8 15 5 5 -3 16 2 24 11 9 9 16 11 16 4 0 -7 6 -5 16 4 8 9
24 16 35 16 10 0 19 5 19 11 0 5 4 7 10 4 5 -3 23 1 39 10 17 8 39 15 51 15
11 0 20 5 20 11 0 6 7 9 15 5 9 -3 24 3 34 13 11 11 21 17 24 15 2 -2 21 3 43
13 21 9 42 16 47 15 4 -1 7 3 7 8 0 5 3 9 8 8 8 -1 24 5 89 33 23 11 45 19 48
19 13 0 240 114 243 122 2 4 8 8 13 8 6 0 7 -6 4 -12 -4 -7 1 -4 9 6 9 11 16
16 16 10 0 -5 4 -4 8 2 8 13 103 59 115 56 4 -1 7 3 7 8 0 6 7 10 15 10 8 0
15 5 15 11 0 5 5 7 10 4 6 -3 13 0 16 9 3 8 12 12 20 9 7 -3 17 2 20 11 3 9
10 14 14 11 5 -3 15 2 23 10 9 8 21 15 27 15 6 0 18 7 27 15 8 8 19 13 24 10
5 -4 9 -2 9 2 0 5 26 22 58 38 31 17 59 33 62 37 3 3 12 8 20 10 8 2 23 11 35
21 17 17 61 38 75 38 3 0 9 7 13 15 4 8 15 14 22 14 8 0 15 5 15 10 0 6 7 10
15 10 8 0 15 5 15 12 0 6 3 9 6 5 3 -3 11 -1 18 4 25 22 116 77 116 71 0 -4 5
1 11 11 5 9 15 17 21 17 5 0 24 11 42 25 44 36 48 38 79 54 15 8 27 18 27 23
0 4 5 8 11 8 18 0 59 37 51 45 -4 5 -2 5 4 2 10 -6 73 34 118 75 11 10 25 18
31 18 6 0 18 8 26 18 9 9 29 26 44 37 16 11 44 32 63 48 19 15 39 27 44 27 5
0 7 4 3 9 -3 5 4 12 15 16 11 3 20 11 20 16 0 5 5 9 11 9 10 0 127 95 141 115
4 6 11 10 15 10 4 0 26 17 47 38 21 20 43 37 47 37 5 0 9 8 9 17 0 9 3 14 6
10 6 -5 31 14 102 80 19 18 39 33 45 33 6 0 7 3 4 7 -4 3 7 16 23 28 16 12 27
25 23 28 -3 4 -2 7 4 7 6 0 32 21 59 48 27 26 52 46 56 44 5 -1 7 1 6 5 -2 5
30 41 70 81 39 40 72 74 72 77 0 2 16 19 35 38 19 19 32 37 28 40 -6 7 13 11
32 7 6 -1 7 2 3 6 -4 4 2 15 14 25 11 11 17 19 13 19 -4 0 3 9 16 21 13 12 23
25 21 30 -1 5 2 9 8 9 13 0 59 48 52 54 -3 3 0 6 7 6 7 0 9 5 5 12 -5 8 -2 9
9 5 10 -4 17 -1 17 6 0 7 11 25 25 41 14 16 25 33 25 38 0 4 6 8 14 8 8 0 13
6 12 13 0 6 3 13 8 14 5 1 16 13 26 27 9 15 20 23 25 19 4 -5 5 -2 1 5 -8 14
18 45 29 34 5 -4 5 -2 2 4 -3 6 6 23 21 39 15 16 26 33 24 38 -1 4 5 10 13 13
8 4 15 12 15 20 0 8 8 14 18 14 14 0 15 2 2 10 -13 8 -12 10 3 10 10 0 16 4
12 9 -3 5 4 16 16 24 15 11 17 16 7 20 -9 4 -7 6 5 6 9 1 17 8 17 16 0 8 4 15
9 15 5 0 18 17 29 38 11 20 25 36 32 34 6 -1 9 2 6 7 -4 5 1 16 10 25 8 9 12
21 8 27 -4 7 -3 10 2 7 13 -7 41 26 38 45 -1 10 1 15 6 12 8 -5 25 24 22 38
-1 4 3 7 8 7 6 0 15 11 22 25 6 13 15 22 19 19 5 -3 6 2 3 10 -3 9 -1 16 5 16
6 0 10 3 9 8 -5 12 28 52 36 44 4 -4 6 -2 4 3 -4 14 43 105 54 105 5 0 6 5 3
10 -3 6 0 13 9 16 9 3 12 12 9 21 -5 12 -3 14 7 8 8 -5 11 -3 8 6 -3 8 0 19 6
26 29 33 34 41 29 47 -4 3 4 15 16 25 12 11 22 22 21 25 -2 16 13 55 20 51 9
-6 22 23 15 35 -3 4 2 11 11 14 8 3 12 10 9 16 -3 5 -2 10 3 10 6 0 13 11 16
25 4 14 11 25 16 25 5 0 7 7 4 15 -4 8 -1 15 6 15 6 0 8 5 5 10 -3 6 1 13 9
16 9 3 16 10 16 16 0 5 -6 6 -13 2 -6 -3 1 6 16 21 18 17 25 30 18 34 -7 4 -4
16 8 34 9 15 21 24 26 20 4 -5 5 -3 2 4 -9 15 2 45 14 37 5 -3 6 2 3 10 -3 9
-1 16 5 16 6 0 8 7 5 15 -4 8 -1 15 6 15 6 0 8 5 5 10 -3 6 3 24 15 40 12 17
19 38 16 46 -4 10 -2 13 6 8 7 -5 9 -2 5 9 -3 9 -1 17 4 19 5 2 11 13 12 25 0
12 5 19 9 17 7 -5 12 18 9 39 -1 4 5 10 13 13 9 3 12 12 9 21 -4 11 -2 14 5 9
8 -5 10 -2 6 8 -3 9 -1 16 6 16 6 0 8 5 5 10 -4 6 -1 17 5 25 7 8 10 21 7 29
-3 8 -1 16 4 18 6 2 11 10 13 18 8 43 19 69 26 65 5 -3 7 6 4 19 -3 17 2 28
13 35 11 6 13 11 5 11 -7 0 -10 5 -7 10 4 6 10 8 15 5 4 -3 6 4 3 15 -3 12 0
20 7 20 10 0 10 3 1 14 -10 11 -8 17 6 25 10 6 14 11 9 11 -4 0 -1 11 8 24 9
14 13 32 10 41 -4 9 2 25 11 35 14 16 15 20 4 20 -11 1 -11 3 1 13 9 7 14 20
12 31 -2 10 0 16 6 12 6 -4 8 2 5 14 -3 12 0 20 6 20 7 0 9 5 6 10 -4 6 -1 18
7 27 9 12 9 15 1 9 -9 -5 -11 -2 -7 8 3 9 9 16 13 16 4 0 7 8 8 18 2 34 14 77
26 91 10 12 9 13 -2 6 -11 -6 -12 -5 -5 6 10 17 15 38 15 61 0 10 4 20 10 23
5 4 9 19 9 35 0 15 6 31 13 33 9 4 8 6 -2 6 -10 1 -11 5 -3 14 11 13 12 17 12
43 0 8 4 13 8 10 4 -2 8 4 8 15 0 10 -5 19 -11 19 -5 0 -4 4 3 9 8 4 13 11 13
15 -1 3 -1 7 0 9 1 1 3 16 5 32 7 66 11 85 17 92 12 11 8 24 -5 18 -7 -4 -6 0
3 7 12 10 14 19 8 36 -5 13 -5 21 0 18 14 -9 21 20 8 33 -8 8 -8 11 1 11 8 0
11 10 8 25 -3 14 -1 23 4 20 4 -3 10 9 12 25 3 17 0 30 -6 30 -7 0 -7 3 -1 8
6 4 10 16 10 27 -1 11 3 23 8 26 6 4 6 13 1 20 -13 22 -13 40 0 45 7 3 11 19
10 40 -2 25 0 33 9 27 7 -4 7 0 -2 10 -7 9 -10 17 -5 17 5 0 10 16 10 35 1 22
-3 33 -10 29 -6 -3 -4 0 4 8 16 14 19 36 7 56 -5 7 -3 12 3 12 7 0 10 6 7 14
-3 7 0 19 6 26 9 10 9 11 0 6 -16 -9 -17 6 -1 22 9 9 9 12 -2 12 -12 0 -12 2
-2 9 8 4 14 12 14 16 0 4 -6 12 -14 16 -11 7 -11 9 1 9 11 0 11 3 0 17 -10 12
-11 15 -1 9 9 -6 12 1 10 26 -1 19 2 39 6 46 4 7 2 12 -6 12 -9 0 -9 3 2 10
13 9 13 10 0 10 -9 0 -11 3 -5 8 13 9 14 451 1 471 -6 9 -5 12 2 7 7 -4 9 21
5 81 -3 49 -6 107 -6 131 -1 23 -6 42 -11 42 -5 0 -1 7 10 15 10 8 15 14 9 13
-8 -3 -17 6 -14 15 6 20 5 37 -1 37 -5 0 -7 13 -5 30 2 16 -1 33 -7 36 -6 4
-5 10 3 16 10 7 11 11 3 14 -7 3 -10 13 -7 23 3 10 0 22 -7 26 -8 5 -8 10 1
21 9 11 9 14 -1 14 -9 0 -10 3 -1 14 9 11 8 15 -4 20 -12 4 -14 10 -5 25 8 16
6 22 -7 30 -17 10 -17 10 1 11 14 0 16 3 7 14 -6 7 -9 21 -5 30 4 9 1 16 -6
16 -10 0 -10 3 0 15 9 11 9 15 1 15 -7 0 -9 5 -6 10 4 6 1 17 -5 25 -9 11 -9
15 -1 15 9 0 8 6 -1 23 -16 29 -19 49 -6 41 7 -5 8 -2 2 7 -4 8 -10 23 -11 33
-2 11 -8 25 -14 32 -7 8 -6 14 2 20 8 5 9 3 4 -6 -6 -9 -4 -11 4 -6 9 6 8 13
-6 29 -10 11 -12 17 -5 13 11 -7 12 -4 3 12 -6 11 -11 34 -11 51 0 16 -6 32
-12 34 -10 4 -9 6 1 6 11 1 11 4 1 16 -7 8 -9 15 -5 15 4 0 1 8 -6 17 -12 15
-12 16 1 8 12 -6 12 -5 3 5 -6 7 -9 19 -6 28 4 8 2 13 -3 10 -5 -3 -10 12 -11
35 -2 22 -8 44 -15 49 -10 6 -9 8 2 8 10 0 11 3 4 8 -6 4 -10 17 -9 29 1 12
-2 20 -7 17 -5 -3 -7 6 -4 20 3 14 1 26 -3 26 -8 0 -9 7 -12 55 -1 14 -6 25
-11 25 -6 0 -8 7 -5 15 4 8 2 17 -3 20 -5 3 -6 13 -3 22 4 11 3 14 -5 9 -8 -5
-11 2 -8 23 2 19 -2 32 -10 35 -8 3 -11 12 -8 21 4 8 1 21 -5 29 -6 7 -9 21
-5 30 3 9 2 16 -3 16 -5 0 -10 6 -11 13 -1 16 -7 38 -16 58 -4 9 -6 20 -4 25
1 5 -3 19 -10 32 -7 12 -10 22 -7 22 3 0 0 10 -7 23 -12 23 -16 35 -22 74 -1
12 -8 28 -14 36 -7 8 -9 17 -5 20 3 4 1 7 -5 7 -6 0 -9 7 -6 15 4 9 0 15 -7
15 -12 0 -12 2 -1 9 11 7 10 9 -3 15 -9 3 -14 10 -10 15 3 5 1 12 -5 16 -6 4
-8 10 -5 15 3 5 1 11 -5 15 -5 3 -10 16 -10 27 0 11 -8 27 -17 34 -11 8 -13
13 -6 14 7 0 10 7 7 15 -4 8 -11 12 -18 8 -6 -3 -8 -3 -4 2 4 4 2 15 -5 23
-10 13 -9 14 1 8 11 -7 12 -4 3 11 -6 11 -7 24 -3 28 4 5 1 5 -5 1 -9 -5 -13
0 -13 13 0 11 -4 23 -10 26 -5 3 -10 15 -10 26 0 10 -4 19 -10 19 -5 0 -10 11
-10 25 0 14 -5 25 -11 25 -6 0 -9 7 -5 15 3 9 0 15 -10 15 -8 0 -13 4 -9 9 7
12 -26 91 -38 91 -4 0 -6 4 -3 9 8 12 -4 42 -13 36 -4 -2 -8 1 -8 8 -1 21 -8
42 -16 48 -4 3 -9 15 -10 27 0 11 -5 18 -9 16 -4 -3 -8 2 -8 11 0 9 -3 14 -7
12 -5 -3 -9 7 -10 21 0 15 -6 28 -12 30 -6 2 -11 9 -11 16 0 18 -24 66 -32 66
-5 0 -8 9 -8 20 0 11 -3 20 -7 20 -5 0 -19 25 -33 55 -14 30 -28 55 -32 55 -5
0 -8 9 -8 20 0 11 -4 20 -8 20 -4 0 -16 20 -26 45 -10 24 -23 42 -29 38 -6 -3
-7 -1 -3 6 4 6 0 18 -8 27 -9 9 -14 20 -11 25 4 5 -2 9 -12 9 -15 0 -16 2 -3
10 13 8 12 10 -3 10 -10 0 -15 5 -12 10 3 6 -1 13 -9 16 -9 3 -13 10 -10 16 3
5 -4 20 -16 33 -13 14 -19 29 -14 37 4 7 4 10 -1 6 -5 -5 -13 2 -20 15 -6 12
-16 21 -22 20 -5 -1 -10 4 -10 12 0 8 5 12 11 9 6 -3 3 1 -6 9 -10 8 -15 17
-11 20 3 4 1 7 -5 7 -7 0 -12 7 -12 16 0 8 -4 12 -10 9 -9 -6 -14 8 -11 28 0
4 -3 7 -8 7 -4 0 -19 20 -32 44 -13 25 -27 42 -31 40 -4 -3 -8 1 -8 9 0 7 -8
22 -18 33 -10 11 -17 25 -14 32 2 6 -1 12 -7 12 -6 0 -16 11 -23 25 -6 13 -16
22 -21 18 -6 -4 -8 0 -4 10 3 10 3 17 -2 17 -5 0 -28 29 -52 65 -24 36 -47 65
-51 65 -5 0 -8 4 -8 10 0 5 -7 18 -15 27 -8 10 -16 23 -17 28 -1 6 -12 18 -25
28 -13 10 -23 23 -23 29 0 6 -10 19 -22 29 -11 11 -19 19 -15 19 5 0 -40 55
-78 94 -11 11 -25 30 -31 41 -6 11 -16 19 -23 17 -7 -1 -10 2 -6 8 3 5 1 10
-5 10 -6 0 -8 5 -5 10 3 6 -1 13 -9 16 -9 3 -14 10 -11 14 5 8 -24 24 -37 22
-4 -1 -5 5 -2 13 4 8 1 15 -5 15 -6 0 -11 7 -11 16 0 8 -4 12 -10 9 -5 -3 -10
-1 -10 5 0 6 -5 8 -10 5 -6 -4 -10 -3 -9 2 3 20 -2 34 -11 28 -5 -3 -10 1 -10
10 0 9 -4 13 -10 10 -5 -3 -10 1 -10 9 0 8 -8 21 -18 28 -10 7 -29 27 -42 45
-13 18 -27 30 -32 27 -4 -3 -8 0 -8 6 0 6 -29 40 -64 75 -35 35 -61 66 -58 69
3 3 -2 6 -10 6 -9 0 -19 7 -22 16 -3 8 -10 12 -16 9 -6 -3 -10 4 -10 16 0 12
-2 20 -5 17 -3 -2 -34 23 -69 57 -44 42 -64 68 -61 81 2 10 4 23 4 27 1 5 5 6
10 2 6 -3 8 4 6 15 -2 11 0 20 5 20 9 0 25 39 22 53 -1 4 2 7 7 7 10 0 27 42
20 48 -2 2 4 8 13 13 9 5 15 15 12 23 -3 7 2 19 11 26 8 7 15 19 15 26 0 8 4
14 10 14 5 0 9 3 8 8 -3 9 34 85 45 93 5 3 8 9 7 13 -3 12 25 66 33 66 5 0 5
5 2 10 -3 6 -1 10 6 10 7 0 9 3 6 6 -3 4 -1 16 5 28 7 11 11 24 10 29 -1 4 3
7 9 7 5 0 8 4 5 9 -4 5 -1 11 6 13 21 7 -17 38 -46 38 -13 0 -36 4 -50 10 -19
7 -26 6 -26 -3 0 -8 -3 -8 -8 -2 -4 6 -20 12 -35 13 -15 1 -37 7 -49 13 -16 8
-19 8 -13 -1 6 -9 2 -9 -15 0 -18 9 -24 9 -30 0 -6 -9 -9 -9 -11 -1 -3 7 -21
13 -42 14 -20 1 -37 5 -37 9 0 3 -15 7 -32 8 -70 3 -93 6 -105 13 -7 5 -13 6
-13 3 0 -2 -13 -1 -29 4 -21 6 -31 5 -35 -3 -3 -9 -5 -8 -5 1 -1 6 -7 12 -14
12 -7 0 -13 9 -13 19 0 11 3 18 7 15 4 -2 13 4 20 13 10 12 10 14 2 9 -7 -4
-13 -2 -13 3 0 6 5 11 11 11 5 0 7 5 4 10 -3 6 0 13 9 16 8 3 12 12 10 19 -3
7 0 16 5 20 6 3 9 11 6 16 -4 5 -1 9 6 9 7 0 9 3 6 6 -3 4 -2 15 4 26 12 22 1
47 -12 27 -7 -12 -9 -12 -9 0 0 7 -6 11 -15 7 -10 -3 -15 1 -15 12 0 13 -2 14
-9 3 -6 -9 -14 -10 -27 -3 -13 7 -25 7 -38 0 -14 -8 -17 -7 -12 1 5 7 -2 11
-16 11 -46 0 -78 4 -78 10 0 3 -9 6 -20 7 -11 1 -18 -2 -15 -7 3 -5 -6 -3 -21
4 -14 8 -37 13 -50 11 -13 -1 -24 1 -24 4 0 4 -8 7 -17 8 -10 1 -35 2 -55 4
-21 1 -38 7 -38 13 0 6 -5 4 -10 -4 -5 -8 -10 -10 -10 -5 0 6 -21 11 -47 12
-25 1 -50 8 -54 15 -7 10 -9 10 -9 -2 0 -9 -3 -11 -8 -5 -4 6 -16 11 -27 11
-51 3 -81 10 -87 19 -5 6 -8 5 -8 -3 0 -8 -5 -10 -12 -5 -15 8 -29 11 -75 15
-18 1 -33 7 -33 13 0 5 -5 3 -10 -5 -5 -8 -10 -10 -10 -5 0 9 -31 15 -92 18
-10 1 -18 6 -18 12 0 5 -5 3 -10 -5 -7 -11 -10 -11 -10 -2 0 7 -6 12 -12 11
-38 -5 -79 2 -72 12 5 8 1 8 -13 0 -14 -7 -24 -7 -33 2 -10 10 -11 9 -5 -3 7
-12 6 -13 -6 -3 -8 6 -27 12 -44 14 -16 2 -36 8 -44 14 -11 7 -13 7 -8 -1 3
-6 0 -11 -8 -11 -8 0 -12 4 -9 9 4 7 -31 12 -73 11 -7 -1 -10 4 -6 10 4 6 0 8
-10 4 -9 -3 -22 -1 -30 6 -21 19 -55 37 -72 37 -9 0 -18 7 -21 15 -4 8 -10 12
-15 9 -5 -3 -9 0 -9 6 0 6 -4 9 -9 6 -4 -3 -17 1 -27 9 -10 8 -27 15 -37 15
-10 0 -15 5 -12 10 5 9 -15 15 -37 11 -5 0 -8 4 -8 9 0 6 -7 10 -15 10 -8 0
-15 4 -15 8 0 4 -10 8 -22 9 -11 1 -25 8 -29 15 -5 7 -9 9 -9 4 0 -5 -9 -1
-19 8 -11 10 -25 15 -30 11 -6 -3 -11 -2 -11 4 0 10 -38 27 -52 23 -5 -1 -8 3
-8 8 0 6 -9 10 -20 10 -11 0 -20 5 -20 10 0 6 -8 10 -17 11 -10 0 -40 11 -68
24 -27 13 -53 21 -57 19 -5 -3 -8 0 -8 5 0 6 -9 11 -20 11 -11 0 -20 4 -20 10
0 5 -3 9 -7 8 -5 -1 -19 4 -32 11 -19 11 -22 11 -15 -1 4 -7 -2 -5 -13 5 -11
9 -23 14 -26 10 -4 -3 -7 -2 -7 3 0 9 -86 39 -93 33 -2 -2 -11 4 -20 13 -10 9
-26 15 -37 13 -11 -2 -18 0 -15 6 4 5 -2 9 -12 9 -10 0 -29 7 -41 16 -12 8
-32 16 -45 17 -12 2 -32 8 -44 15 -13 7 -23 10 -23 6 0 -3 -7 -1 -15 6 -8 7
-15 10 -15 7 0 -3 -16 1 -35 9 -19 8 -35 11 -35 7 0 -5 -4 -3 -8 3 -4 5 -34
18 -67 28 -33 11 -66 23 -72 29 -7 5 -13 7 -13 3 0 -3 -15 0 -34 8 -26 11 -37
11 -46 3 -10 -9 -11 -9 -7 -1 8 14 -14 24 -49 24 -13 0 -24 4 -24 9 0 5 -11 8
-25 7 -15 -2 -22 1 -18 7 4 6 0 8 -9 4 -9 -3 -19 -3 -22 1 -4 3 -13 7 -21 9
-28 6 -50 11 -50 13 0 1 -9 4 -20 6 -17 4 -32 7 -68 13 -5 0 -6 4 -3 9 2 4
-11 7 -30 6 -19 -1 -34 1 -34 5 0 6 -28 12 -72 14 -10 1 -18 4 -18 7 0 6 -14
9 -60 13 -14 1 -27 5 -30 9 -3 4 -27 8 -53 10 -26 2 -47 6 -47 9 0 4 -24 10
-52 14 -66 10 -61 9 -77 19 -10 7 -12 6 -6 -4 6 -10 4 -11 -6 -4 -16 10 -25
12 -91 21 -27 3 -48 10 -48 15 0 5 -6 6 -12 1 -20 -12 -38 -12 -38 -1 0 6 -6
8 -14 5 -7 -3 -19 0 -25 6 -8 8 -11 8 -11 -2 0 -11 -3 -11 -15 -1 -8 7 -15 9
-15 6 0 -4 -10 -2 -21 5 -17 9 -20 8 -14 -2 6 -8 4 -10 -6 -3 -17 10 -34 14
-74 15 -16 1 -38 6 -47 10 -10 6 -19 5 -23 -1 -4 -7 -11 -7 -18 -2 -7 5 -19
10 -27 10 -52 2 -118 10 -126 14 -5 3 -24 6 -42 6 -18 0 -47 4 -64 7 -22 5
-29 4 -23 -5 6 -9 3 -9 -12 -1 -11 6 -23 7 -27 4 -3 -3 -6 -2 -6 3 0 5 -28 10
-63 11 -182 5 -223 7 -234 15 -6 5 -14 5 -18 -2 -3 -6 -11 -7 -18 -3 -16 10
-58 10 -63 1 -3 -5 -11 -5 -17 -1 -7 4 -27 8 -45 10 -24 2 -31 -1 -26 -10 6
-8 3 -8 -9 1 -9 8 -31 12 -49 11 -18 -2 -39 0 -46 5 -6 4 -12 4 -12 -1 0 -9
-102 -8 -125 1 -8 3 -15 2 -15 -2 0 -11 -204 -8 -212 3 -5 7 -8 7 -8 0z"/>
<path d="M7399 15073 c-13 -16 -12 -17 4 -4 16 13 21 21 13 21 -2 0 -10 -8
-17 -17z"/>
<path d="M7025 15000 c-3 -6 1 -7 9 -4 18 7 21 14 7 14 -6 0 -13 -4 -16 -10z"/>
<path d="M6780 14860 c-8 -5 -10 -10 -5 -10 6 0 17 5 25 10 8 5 11 10 5 10 -5
0 -17 -5 -25 -10z"/>
<path d="M6544 14842 c4 -3 14 -7 22 -8 9 -1 13 0 10 4 -4 3 -14 7 -22 8 -9 1
-13 0 -10 -4z"/>
<path d="M6275 14800 c-3 -5 -1 -10 4 -10 6 0 11 5 11 10 0 6 -2 10 -4 10 -3
0 -8 -4 -11 -10z"/>
<path d="M6355 14800 c-3 -5 -1 -10 4 -10 6 0 11 5 11 10 0 6 -2 10 -4 10 -3
0 -8 -4 -11 -10z"/>
<path d="M5506 14722 c-3 -5 1 -9 9 -9 8 0 12 4 9 9 -3 4 -7 8 -9 8 -2 0 -6
-4 -9 -8z"/>
<path d="M5630 14719 c0 -5 5 -7 10 -4 6 3 10 8 10 11 0 2 -4 4 -10 4 -5 0
-10 -5 -10 -11z"/>
<path d="M5715 14720 c3 -5 8 -10 11 -10 2 0 4 5 4 10 0 6 -5 10 -11 10 -5 0
-7 -4 -4 -10z"/>
<path d="M4870 14656 c0 -2 8 -10 18 -17 15 -13 16 -12 3 4 -13 16 -21 21 -21
13z"/>
<path d="M5630 14639 c0 -5 5 -7 10 -4 6 3 10 8 10 11 0 2 -4 4 -10 4 -5 0
-10 -5 -10 -11z"/>
<path d="M5715 14640 c3 -5 8 -10 11 -10 2 0 4 5 4 10 0 6 -5 10 -11 10 -5 0
-7 -4 -4 -10z"/>
<path d="M5155 14560 c-3 -5 -1 -10 4 -10 6 0 11 5 11 10 0 6 -2 10 -4 10 -3
0 -8 -4 -11 -10z"/>
<path d="M5235 14560 c-3 -5 -1 -10 4 -10 6 0 11 5 11 10 0 6 -2 10 -4 10 -3
0 -8 -4 -11 -10z"/>
<path d="M5113 14505 c0 -8 4 -12 9 -9 5 3 6 10 3 15 -9 13 -12 11 -12 -6z"/>
<path d="M5807 14499 c7 -7 15 -10 18 -7 3 3 -2 9 -12 12 -14 6 -15 5 -6 -5z"/>
<path d="M4313 14475 c0 -8 4 -12 9 -9 5 3 6 10 3 15 -9 13 -12 11 -12 -6z"/>
<path d="M4667 14479 c7 -7 15 -10 18 -7 3 3 -2 9 -12 12 -14 6 -15 5 -6 -5z"/>
<path d="M5150 14479 c0 -5 5 -7 10 -4 6 3 10 8 10 11 0 2 -4 4 -10 4 -5 0
-10 -5 -10 -11z"/>
<path d="M5336 14442 c-3 -5 1 -9 9 -9 8 0 12 4 9 9 -3 4 -7 8 -9 8 -2 0 -6
-4 -9 -8z"/>
<path d="M5150 14399 c0 -5 5 -7 10 -4 6 3 10 8 10 11 0 2 -4 4 -10 4 -5 0
-10 -5 -10 -11z"/>
<path d="M5230 14399 c0 -5 5 -7 10 -4 6 3 10 8 10 11 0 2 -4 4 -10 4 -5 0
-10 -5 -10 -11z"/>
<path d="M5433 14355 c0 -8 4 -12 9 -9 4 3 8 9 8 15 0 5 -4 9 -8 9 -5 0 -9 -7
-9 -15z"/>
<path d="M4145 14320 c-3 -6 1 -7 9 -4 18 7 21 14 7 14 -6 0 -13 -4 -16 -10z"/>
<path d="M5075 14320 c3 -5 8 -10 11 -10 2 0 4 5 4 10 0 6 -5 10 -11 10 -5 0
-7 -4 -4 -10z"/>
<path d="M5155 14320 c-3 -5 -1 -10 4 -10 6 0 11 5 11 10 0 6 -2 10 -4 10 -3
0 -8 -4 -11 -10z"/>
<path d="M5230 14319 c0 -5 5 -7 10 -4 6 3 10 8 10 11 0 2 -4 4 -10 4 -5 0
-10 -5 -10 -11z"/>
<path d="M4405 14279 c-3 -4 2 -6 10 -5 21 3 28 13 10 13 -9 0 -18 -4 -20 -8z"/>
<path d="M4115 14251 c-3 -5 -2 -12 3 -15 5 -3 9 1 9 9 0 17 -3 19 -12 6z"/>
<path d="M4995 14240 c3 -5 8 -10 11 -10 2 0 4 5 4 10 0 6 -5 10 -11 10 -5 0
-7 -4 -4 -10z"/>
<path d="M5075 14240 c3 -5 8 -10 11 -10 2 0 4 5 4 10 0 6 -5 10 -11 10 -5 0
-7 -4 -4 -10z"/>
<path d="M5150 14239 c0 -5 5 -7 10 -4 6 3 10 8 10 11 0 2 -4 4 -10 4 -5 0
-10 -5 -10 -11z"/>
<path d="M3910 14201 c0 -6 4 -13 10 -16 6 -3 7 1 4 9 -7 18 -14 21 -14 7z"/>
<path d="M4315 14200 c3 -5 8 -10 11 -10 2 0 4 5 4 10 0 6 -5 10 -11 10 -5 0
-7 -4 -4 -10z"/>
<path d="M4390 14200 c0 -5 5 -10 11 -10 5 0 7 5 4 10 -3 6 -8 10 -11 10 -2 0
-4 -4 -4 -10z"/>
<path d="M4995 14160 c3 -5 8 -10 11 -10 2 0 4 5 4 10 0 6 -5 10 -11 10 -5 0
-7 -4 -4 -10z"/>
<path d="M5070 14160 c0 -5 5 -10 11 -10 5 0 7 5 4 10 -3 6 -8 10 -11 10 -2 0
-4 -4 -4 -10z"/>
<path d="M5136 14147 c3 -10 9 -15 12 -12 3 3 0 11 -7 18 -10 9 -11 8 -5 -6z"/>
<path d="M4294 14122 c4 -3 14 -7 22 -8 9 -1 13 0 10 4 -4 3 -14 7 -22 8 -9 1
-13 0 -10 -4z"/>
<path d="M4835 14080 c3 -5 8 -10 11 -10 2 0 4 5 4 10 0 6 -5 10 -11 10 -5 0
-7 -4 -4 -10z"/>
<path d="M4915 14080 c3 -5 8 -10 11 -10 2 0 4 5 4 10 0 6 -5 10 -11 10 -5 0
-7 -4 -4 -10z"/>
<path d="M4316 14047 c3 -10 9 -15 12 -12 3 3 0 11 -7 18 -10 9 -11 8 -5 -6z"/>
<path d="M4395 14040 c-3 -5 -1 -10 4 -10 6 0 11 5 11 10 0 6 -2 10 -4 10 -3
0 -8 -4 -11 -10z"/>
<path d="M4550 14039 c0 -5 5 -7 10 -4 6 3 10 8 10 11 0 2 -4 4 -10 4 -5 0
-10 -5 -10 -11z"/>
<path d="M4635 14040 c-3 -5 -1 -10 4 -10 6 0 11 5 11 10 0 6 -2 10 -4 10 -3
0 -8 -4 -11 -10z"/>
<path d="M4710 14039 c0 -5 5 -7 10 -4 6 3 10 8 10 11 0 2 -4 4 -10 4 -5 0
-10 -5 -10 -11z"/>
<path d="M4835 14000 c3 -5 8 -10 11 -10 2 0 4 5 4 10 0 6 -5 10 -11 10 -5 0
-7 -4 -4 -10z"/>
<path d="M3595 13960 c-3 -5 -1 -10 4 -10 6 0 11 5 11 10 0 6 -2 10 -4 10 -3
0 -8 -4 -11 -10z"/>
<path d="M4310 13959 c0 -5 5 -7 10 -4 6 3 10 8 10 11 0 2 -4 4 -10 4 -5 0
-10 -5 -10 -11z"/>
<path d="M4475 13961 c-3 -5 -2 -12 3 -15 5 -3 9 1 9 9 0 17 -3 19 -12 6z"/>
<path d="M4545 13960 c-3 -6 1 -7 9 -4 18 7 21 14 7 14 -6 0 -13 -4 -16 -10z"/>
<path d="M4626 13962 c-3 -5 1 -9 9 -9 8 0 12 4 9 9 -3 4 -7 8 -9 8 -2 0 -6
-4 -9 -8z"/>
<path d="M3555 13891 c-3 -5 -2 -12 3 -15 5 -3 9 1 9 9 0 17 -3 19 -12 6z"/>
<path d="M2956 13762 c-3 -5 1 -9 9 -9 8 0 12 4 9 9 -3 4 -7 8 -9 8 -2 0 -6
-4 -9 -8z"/>
<path d="M3313 13755 c0 -8 4 -12 9 -9 5 3 6 10 3 15 -9 13 -12 11 -12 -6z"/>
<path d="M4195 13760 c-3 -5 -1 -10 4 -10 6 0 11 5 11 10 0 6 -2 10 -4 10 -3
0 -8 -4 -11 -10z"/>
<path d="M3230 13680 c0 -5 5 -10 11 -10 5 0 7 5 4 10 -3 6 -8 10 -11 10 -2 0
-4 -4 -4 -10z"/>
<path d="M3315 13680 c-3 -5 -1 -10 4 -10 6 0 11 5 11 10 0 6 -2 10 -4 10 -3
0 -8 -4 -11 -10z"/>
<path d="M4190 13679 c0 -5 5 -7 10 -4 6 3 10 8 10 11 0 2 -4 4 -10 4 -5 0
-10 -5 -10 -11z"/>
<path d="M4433 13665 c0 -8 4 -12 9 -9 5 3 6 10 3 15 -9 13 -12 11 -12 -6z"/>
<path d="M4030 13600 c0 -5 5 -10 11 -10 5 0 7 5 4 10 -3 6 -8 10 -11 10 -2 0
-4 -4 -4 -10z"/>
<path d="M4110 13600 c0 -5 5 -10 11 -10 5 0 7 5 4 10 -3 6 -8 10 -11 10 -2 0
-4 -4 -4 -10z"/>
<path d="M4190 13599 c0 -5 5 -7 10 -4 6 3 10 8 10 11 0 2 -4 4 -10 4 -5 0
-10 -5 -10 -11z"/>
<path d="M4270 13599 c0 -5 5 -7 10 -4 6 3 10 8 10 11 0 2 -4 4 -10 4 -5 0
-10 -5 -10 -11z"/>
<path d="M2995 13531 c-3 -5 -2 -12 3 -15 5 -3 9 1 9 9 0 17 -3 19 -12 6z"/>
<path d="M3950 13520 c0 -5 5 -10 11 -10 5 0 7 5 4 10 -3 6 -8 10 -11 10 -2 0
-4 -4 -4 -10z"/>
<path d="M4030 13520 c0 -5 5 -10 11 -10 5 0 7 5 4 10 -3 6 -8 10 -11 10 -2 0
-4 -4 -4 -10z"/>
<path d="M4115 13520 c3 -5 8 -10 11 -10 2 0 4 5 4 10 0 6 -5 10 -11 10 -5 0
-7 -4 -4 -10z"/>
<path d="M4190 13520 c0 -5 5 -10 11 -10 5 0 7 5 4 10 -3 6 -8 10 -11 10 -2 0
-4 -4 -4 -10z"/>
<path d="M4266 13522 c-3 -5 1 -9 9 -9 8 0 12 4 9 9 -3 4 -7 8 -9 8 -2 0 -6
-4 -9 -8z"/>
<path d="M2475 13241 c-3 -5 -2 -12 3 -15 5 -3 9 1 9 9 0 17 -3 19 -12 6z"/>
<path d="M2506 13158 c3 -5 10 -6 15 -3 13 9 11 12 -6 12 -8 0 -12 -4 -9 -9z"/>
<path d="M2396 13113 c-6 -14 -5 -15 5 -6 7 7 10 15 7 18 -3 3 -9 -2 -12 -12z"/>
<path d="M2516 13118 c3 -5 10 -6 15 -3 13 9 11 12 -6 12 -8 0 -12 -4 -9 -9z"/>
<path d="M2915 13120 c3 -5 8 -10 11 -10 2 0 4 5 4 10 0 6 -5 10 -11 10 -5 0
-7 -4 -4 -10z"/>
<path d="M2995 13120 c3 -5 8 -10 11 -10 2 0 4 5 4 10 0 6 -5 10 -11 10 -5 0
-7 -4 -4 -10z"/>
<path d="M3070 13120 c0 -5 5 -10 11 -10 5 0 7 5 4 10 -3 6 -8 10 -11 10 -2 0
-4 -4 -4 -10z"/>
<path d="M3155 13120 c3 -5 8 -10 11 -10 2 0 4 5 4 10 0 6 -5 10 -11 10 -5 0
-7 -4 -4 -10z"/>
<path d="M2175 13081 c-3 -5 -2 -12 3 -15 5 -3 9 1 9 9 0 17 -3 19 -12 6z"/>
<path d="M2635 13080 c3 -5 8 -10 11 -10 2 0 4 5 4 10 0 6 -5 10 -11 10 -5 0
-7 -4 -4 -10z"/>
<path d="M2510 13039 c0 -5 5 -7 10 -4 6 3 10 8 10 11 0 2 -4 4 -10 4 -5 0
-10 -5 -10 -11z"/>
<path d="M2915 13040 c3 -5 8 -10 11 -10 2 0 4 5 4 10 0 6 -5 10 -11 10 -5 0
-7 -4 -4 -10z"/>
<path d="M2990 13040 c0 -5 5 -10 11 -10 5 0 7 5 4 10 -3 6 -8 10 -11 10 -2 0
-4 -4 -4 -10z"/>
<path d="M3075 13040 c3 -5 8 -10 11 -10 2 0 4 5 4 10 0 6 -5 10 -11 10 -5 0
-7 -4 -4 -10z"/>
<path d="M3155 13040 c3 -5 8 -10 11 -10 2 0 4 5 4 10 0 6 -5 10 -11 10 -5 0
-7 -4 -4 -10z"/>
<path d="M3230 13039 c0 -5 5 -7 10 -4 6 3 10 8 10 11 0 2 -4 4 -10 4 -5 0
-10 -5 -10 -11z"/>
<path d="M3675 12991 c-3 -5 -2 -12 3 -15 5 -3 9 1 9 9 0 17 -3 19 -12 6z"/>
<path d="M2915 12960 c3 -5 8 -10 11 -10 2 0 4 5 4 10 0 6 -5 10 -11 10 -5 0
-7 -4 -4 -10z"/>
<path d="M2995 12960 c3 -5 8 -10 11 -10 2 0 4 5 4 10 0 6 -5 10 -11 10 -5 0
-7 -4 -4 -10z"/>
<path d="M3075 12960 c-3 -5 -1 -10 4 -10 6 0 11 5 11 10 0 6 -2 10 -4 10 -3
0 -8 -4 -11 -10z"/>
<path d="M3155 12960 c-3 -5 -1 -10 4 -10 6 0 11 5 11 10 0 6 -2 10 -4 10 -3
0 -8 -4 -11 -10z"/>
<path d="M3230 12959 c0 -5 5 -7 10 -4 6 3 10 8 10 11 0 2 -4 4 -10 4 -5 0
-10 -5 -10 -11z"/>
<path d="M3310 12959 c0 -5 5 -7 10 -4 6 3 10 8 10 11 0 2 -4 4 -10 4 -5 0
-10 -5 -10 -11z"/>
<path d="M2915 12880 c3 -5 8 -10 11 -10 2 0 4 5 4 10 0 6 -5 10 -11 10 -5 0
-7 -4 -4 -10z"/>
<path d="M2995 12880 c-3 -5 -1 -10 4 -10 6 0 11 5 11 10 0 6 -2 10 -4 10 -3
0 -8 -4 -11 -10z"/>
<path d="M3070 12879 c0 -5 5 -7 10 -4 6 3 10 8 10 11 0 2 -4 4 -10 4 -5 0
-10 -5 -10 -11z"/>
<path d="M3155 12880 c-3 -5 -1 -10 4 -10 6 0 11 5 11 10 0 6 -2 10 -4 10 -3
0 -8 -4 -11 -10z"/>
<path d="M3235 12880 c-3 -5 -1 -10 4 -10 6 0 11 5 11 10 0 6 -2 10 -4 10 -3
0 -8 -4 -11 -10z"/>
<path d="M3310 12879 c0 -5 5 -7 10 -4 6 3 10 8 10 11 0 2 -4 4 -10 4 -5 0
-10 -5 -10 -11z"/>
<path d="M2115 12851 c-3 -5 -2 -12 3 -15 5 -3 9 1 9 9 0 17 -3 19 -12 6z"/>
<path d="M3516 12813 c-6 -14 -5 -15 5 -6 7 7 10 15 7 18 -3 3 -9 -2 -12 -12z"/>
<path d="M2233 12745 c0 -8 4 -12 9 -9 5 3 6 10 3 15 -9 13 -12 11 -12 -6z"/>
<path d="M1987 12559 c7 -7 15 -10 18 -7 3 3 -2 9 -12 12 -14 6 -15 5 -6 -5z"/>
<path d="M1670 12496 c0 -2 8 -10 18 -17 15 -13 16 -12 3 4 -13 16 -21 21 -21
13z"/>
<path d="M1866 12482 c-3 -5 1 -9 9 -9 8 0 12 4 9 9 -3 4 -7 8 -9 8 -2 0 -6
-4 -9 -8z"/>
<path d="M2590 12480 c0 -5 5 -10 11 -10 5 0 7 5 4 10 -3 6 -8 10 -11 10 -2 0
-4 -4 -4 -10z"/>
<path d="M2670 12480 c0 -5 5 -10 11 -10 5 0 7 5 4 10 -3 6 -8 10 -11 10 -2 0
-4 -4 -4 -10z"/>
<path d="M2750 12480 c0 -5 5 -10 11 -10 5 0 7 5 4 10 -3 6 -8 10 -11 10 -2 0
-4 -4 -4 -10z"/>
<path d="M2835 12480 c-3 -5 -1 -10 4 -10 6 0 11 5 11 10 0 6 -2 10 -4 10 -3
0 -8 -4 -11 -10z"/>
<path d="M2590 12400 c0 -5 5 -10 11 -10 5 0 7 5 4 10 -3 6 -8 10 -11 10 -2 0
-4 -4 -4 -10z"/>
<path d="M2675 12400 c3 -5 8 -10 11 -10 2 0 4 5 4 10 0 6 -5 10 -11 10 -5 0
-7 -4 -4 -10z"/>
<path d="M2750 12400 c0 -5 5 -10 11 -10 5 0 7 5 4 10 -3 6 -8 10 -11 10 -2 0
-4 -4 -4 -10z"/>
<path d="M2835 12400 c-3 -5 -1 -10 4 -10 6 0 11 5 11 10 0 6 -2 10 -4 10 -3
0 -8 -4 -11 -10z"/>
<path d="M1790 12366 c0 -2 7 -7 16 -10 8 -3 12 -2 9 4 -6 10 -25 14 -25 6z"/>
<path d="M2595 12320 c3 -5 8 -10 11 -10 2 0 4 5 4 10 0 6 -5 10 -11 10 -5 0
-7 -4 -4 -10z"/>
<path d="M2670 12320 c0 -5 5 -10 11 -10 5 0 7 5 4 10 -3 6 -8 10 -11 10 -2 0
-4 -4 -4 -10z"/>
<path d="M2755 12320 c-3 -5 -1 -10 4 -10 6 0 11 5 11 10 0 6 -2 10 -4 10 -3
0 -8 -4 -11 -10z"/>
<path d="M2830 12319 c0 -5 5 -7 10 -4 6 3 10 8 10 11 0 2 -4 4 -10 4 -5 0
-10 -5 -10 -11z"/>
<path d="M2915 12320 c-3 -5 -1 -10 4 -10 6 0 11 5 11 10 0 6 -2 10 -4 10 -3
0 -8 -4 -11 -10z"/>
<path d="M2995 12320 c-3 -5 -1 -10 4 -10 6 0 11 5 11 10 0 6 -2 10 -4 10 -3
0 -8 -4 -11 -10z"/>
<path d="M1716 12242 c-3 -5 1 -9 9 -9 8 0 12 4 9 9 -3 4 -7 8 -9 8 -2 0 -6
-4 -9 -8z"/>
<path d="M2590 12240 c0 -5 5 -10 11 -10 5 0 7 5 4 10 -3 6 -8 10 -11 10 -2 0
-4 -4 -4 -10z"/>
<path d="M2670 12240 c0 -5 5 -10 11 -10 5 0 7 5 4 10 -3 6 -8 10 -11 10 -2 0
-4 -4 -4 -10z"/>
<path d="M2755 12240 c-3 -5 -1 -10 4 -10 6 0 11 5 11 10 0 6 -2 10 -4 10 -3
0 -8 -4 -11 -10z"/>
<path d="M2835 12240 c-3 -5 -1 -10 4 -10 6 0 11 5 11 10 0 6 -2 10 -4 10 -3
0 -8 -4 -11 -10z"/>
<path d="M2910 12239 c0 -5 5 -7 10 -4 6 3 10 8 10 11 0 2 -4 4 -10 4 -5 0
-10 -5 -10 -11z"/>
<path d="M2995 12240 c-3 -5 -1 -10 4 -10 6 0 11 5 11 10 0 6 -2 10 -4 10 -3
0 -8 -4 -11 -10z"/>
<path d="M1776 12202 c-3 -5 1 -9 9 -9 8 0 12 4 9 9 -3 4 -7 8 -9 8 -2 0 -6
-4 -9 -8z"/>
<path d="M1665 12160 c-3 -6 1 -7 9 -4 18 7 21 14 7 14 -6 0 -13 -4 -16 -10z"/>
<path d="M2275 12160 c3 -5 8 -10 11 -10 2 0 4 5 4 10 0 6 -5 10 -11 10 -5 0
-7 -4 -4 -10z"/>
<path d="M2355 12160 c3 -5 8 -10 11 -10 2 0 4 5 4 10 0 6 -5 10 -11 10 -5 0
-7 -4 -4 -10z"/>
<path d="M2430 12160 c0 -5 5 -10 11 -10 5 0 7 5 4 10 -3 6 -8 10 -11 10 -2 0
-4 -4 -4 -10z"/>
<path d="M2955 12120 c3 -5 8 -10 11 -10 2 0 4 5 4 10 0 6 -5 10 -11 10 -5 0
-7 -4 -4 -10z"/>
<path d="M1546 12082 c-3 -5 1 -9 9 -9 8 0 12 4 9 9 -3 4 -7 8 -9 8 -2 0 -6
-4 -9 -8z"/>
<path d="M2275 12080 c3 -5 8 -10 11 -10 2 0 4 5 4 10 0 6 -5 10 -11 10 -5 0
-7 -4 -4 -10z"/>
<path d="M2350 12080 c0 -5 5 -10 11 -10 5 0 7 5 4 10 -3 6 -8 10 -11 10 -2 0
-4 -4 -4 -10z"/>
<path d="M2435 12080 c3 -5 8 -10 11 -10 2 0 4 5 4 10 0 6 -5 10 -11 10 -5 0
-7 -4 -4 -10z"/>
<path d="M2515 12080 c3 -5 8 -10 11 -10 2 0 4 5 4 10 0 6 -5 10 -11 10 -5 0
-7 -4 -4 -10z"/>
<path d="M2926 12042 c-3 -5 1 -9 9 -9 8 0 12 4 9 9 -3 4 -7 8 -9 8 -2 0 -6
-4 -9 -8z"/>
<path d="M2275 12000 c3 -5 8 -10 11 -10 2 0 4 5 4 10 0 6 -5 10 -11 10 -5 0
-7 -4 -4 -10z"/>
<path d="M2355 12000 c3 -5 8 -10 11 -10 2 0 4 5 4 10 0 6 -5 10 -11 10 -5 0
-7 -4 -4 -10z"/>
<path d="M2435 12000 c-3 -5 -1 -10 4 -10 6 0 11 5 11 10 0 6 -2 10 -4 10 -3
0 -8 -4 -11 -10z"/>
<path d="M2515 12000 c-3 -5 -1 -10 4 -10 6 0 11 5 11 10 0 6 -2 10 -4 10 -3
0 -8 -4 -11 -10z"/>
<path d="M1590 11961 c0 -6 4 -13 10 -16 6 -3 7 1 4 9 -7 18 -14 21 -14 7z"/>
<path d="M2630 11960 c0 -5 5 -10 11 -10 5 0 7 5 4 10 -3 6 -8 10 -11 10 -2 0
-4 -4 -4 -10z"/>
<path d="M2275 11920 c3 -5 8 -10 11 -10 2 0 4 5 4 10 0 6 -5 10 -11 10 -5 0
-7 -4 -4 -10z"/>
<path d="M2350 11920 c0 -5 5 -10 11 -10 5 0 7 5 4 10 -3 6 -8 10 -11 10 -2 0
-4 -4 -4 -10z"/>
<path d="M2430 11919 c0 -5 5 -7 10 -4 6 3 10 8 10 11 0 2 -4 4 -10 4 -5 0
-10 -5 -10 -11z"/>
<path d="M2515 11920 c-3 -5 -1 -10 4 -10 6 0 11 5 11 10 0 6 -2 10 -4 10 -3
0 -8 -4 -11 -10z"/>
<path d="M2635 11880 c3 -5 8 -10 11 -10 2 0 4 5 4 10 0 6 -5 10 -11 10 -5 0
-7 -4 -4 -10z"/>
<path d="M2435 11840 c-3 -5 -1 -10 4 -10 6 0 11 5 11 10 0 6 -2 10 -4 10 -3
0 -8 -4 -11 -10z"/>
<path d="M2510 11839 c0 -5 5 -7 10 -4 6 3 10 8 10 11 0 2 -4 4 -10 4 -5 0
-10 -5 -10 -11z"/>
<path d="M2630 11800 c0 -5 5 -10 11 -10 5 0 7 5 4 10 -3 6 -8 10 -11 10 -2 0
-4 -4 -4 -10z"/>
<path d="M2710 11800 c0 -5 5 -10 11 -10 5 0 7 5 4 10 -3 6 -8 10 -11 10 -2 0
-4 -4 -4 -10z"/>
<path d="M2435 11760 c-3 -5 -1 -10 4 -10 6 0 11 5 11 10 0 6 -2 10 -4 10 -3
0 -8 -4 -11 -10z"/>
<path d="M2515 11760 c-3 -5 -1 -10 4 -10 6 0 11 5 11 10 0 6 -2 10 -4 10 -3
0 -8 -4 -11 -10z"/>
<path d="M2716 11718 c3 -5 10 -6 15 -3 13 9 11 12 -6 12 -8 0 -12 -4 -9 -9z"/>
<path d="M2515 11680 c-3 -5 -1 -10 4 -10 6 0 11 5 11 10 0 6 -2 10 -4 10 -3
0 -8 -4 -11 -10z"/>
<path d="M2635 11651 c-3 -5 -2 -12 3 -15 5 -3 9 1 9 9 0 17 -3 19 -12 6z"/>
<path d="M1315 11600 c3 -5 8 -10 11 -10 2 0 4 5 4 10 0 6 -5 10 -11 10 -5 0
-7 -4 -4 -10z"/>
<path d="M2510 11599 c0 -5 5 -7 10 -4 6 3 10 8 10 11 0 2 -4 4 -10 4 -5 0
-10 -5 -10 -11z"/>
<path d="M2635 11560 c3 -5 8 -10 11 -10 2 0 4 5 4 10 0 6 -5 10 -11 10 -5 0
-7 -4 -4 -10z"/>
<path d="M1235 11521 c-3 -5 -2 -12 3 -15 5 -3 9 1 9 9 0 17 -3 19 -12 6z"/>
<path d="M2595 11520 c-3 -5 -1 -10 4 -10 6 0 11 5 11 10 0 6 -2 10 -4 10 -3
0 -8 -4 -11 -10z"/>
<path d="M1185 11360 c-3 -6 1 -7 9 -4 18 7 21 14 7 14 -6 0 -13 -4 -16 -10z"/>
<path d="M1795 11280 c3 -5 8 -10 11 -10 2 0 4 5 4 10 0 6 -5 10 -11 10 -5 0
-7 -4 -4 -10z"/>
<path d="M1870 11280 c0 -5 5 -10 11 -10 5 0 7 5 4 10 -3 6 -8 10 -11 10 -2 0
-4 -4 -4 -10z"/>
<path d="M1635 11200 c3 -5 8 -10 11 -10 2 0 4 5 4 10 0 6 -5 10 -11 10 -5 0
-7 -4 -4 -10z"/>
<path d="M1715 11200 c3 -5 8 -10 11 -10 2 0 4 5 4 10 0 6 -5 10 -11 10 -5 0
-7 -4 -4 -10z"/>
<path d="M1790 11200 c0 -5 5 -10 11 -10 5 0 7 5 4 10 -3 6 -8 10 -11 10 -2 0
-4 -4 -4 -10z"/>
<path d="M1875 11200 c3 -5 8 -10 11 -10 2 0 4 5 4 10 0 6 -5 10 -11 10 -5 0
-7 -4 -4 -10z"/>
<path d="M1635 11120 c3 -5 8 -10 11 -10 2 0 4 5 4 10 0 6 -5 10 -11 10 -5 0
-7 -4 -4 -10z"/>
<path d="M1710 11120 c0 -5 5 -10 11 -10 5 0 7 5 4 10 -3 6 -8 10 -11 10 -2 0
-4 -4 -4 -10z"/>
<path d="M1795 11120 c3 -5 8 -10 11 -10 2 0 4 5 4 10 0 6 -5 10 -11 10 -5 0
-7 -4 -4 -10z"/>
<path d="M1875 11120 c3 -5 8 -10 11 -10 2 0 4 5 4 10 0 6 -5 10 -11 10 -5 0
-7 -4 -4 -10z"/>
<path d="M796 11107 c3 -10 9 -15 12 -12 3 3 0 11 -7 18 -10 9 -11 8 -5 -6z"/>
<path d="M1113 11055 c0 -8 4 -12 9 -9 5 3 6 10 3 15 -9 13 -12 11 -12 -6z"/>
<path d="M996 11038 c3 -5 10 -6 15 -3 13 9 11 12 -6 12 -8 0 -12 -4 -9 -9z"/>
<path d="M1635 11040 c-3 -5 -1 -10 4 -10 6 0 11 5 11 10 0 6 -2 10 -4 10 -3
0 -8 -4 -11 -10z"/>
<path d="M1715 11040 c3 -5 8 -10 11 -10 2 0 4 5 4 10 0 6 -5 10 -11 10 -5 0
-7 -4 -4 -10z"/>
<path d="M1795 11040 c-3 -5 -1 -10 4 -10 6 0 11 5 11 10 0 6 -2 10 -4 10 -3
0 -8 -4 -11 -10z"/>
<path d="M1875 11040 c-3 -5 -1 -10 4 -10 6 0 11 5 11 10 0 6 -2 10 -4 10 -3
0 -8 -4 -11 -10z"/>
<path d="M1955 11040 c-3 -5 -1 -10 4 -10 6 0 11 5 11 10 0 6 -2 10 -4 10 -3
0 -8 -4 -11 -10z"/>
<path d="M2035 11040 c-3 -5 -1 -10 4 -10 6 0 11 5 11 10 0 6 -2 10 -4 10 -3
0 -8 -4 -11 -10z"/>
<path d="M1635 10960 c-3 -5 -1 -10 4 -10 6 0 11 5 11 10 0 6 -2 10 -4 10 -3
0 -8 -4 -11 -10z"/>
<path d="M1715 10960 c-3 -5 -1 -10 4 -10 6 0 11 5 11 10 0 6 -2 10 -4 10 -3
0 -8 -4 -11 -10z"/>
<path d="M1790 10959 c0 -5 5 -7 10 -4 6 3 10 8 10 11 0 2 -4 4 -10 4 -5 0
-10 -5 -10 -11z"/>
<path d="M1875 10960 c-3 -5 -1 -10 4 -10 6 0 11 5 11 10 0 6 -2 10 -4 10 -3
0 -8 -4 -11 -10z"/>
<path d="M1950 10959 c0 -5 5 -7 10 -4 6 3 10 8 10 11 0 2 -4 4 -10 4 -5 0
-10 -5 -10 -11z"/>
<path d="M2353 10925 c0 -8 4 -12 9 -9 5 3 6 10 3 15 -9 13 -12 11 -12 -6z"/>
<path d="M946 10878 c3 -5 10 -6 15 -3 13 9 11 12 -6 12 -8 0 -12 -4 -9 -9z"/>
<path d="M915 10811 c-3 -5 -2 -12 3 -15 5 -3 9 1 9 9 0 17 -3 19 -12 6z"/>
<path d="M2235 10791 c-3 -5 -2 -12 3 -15 5 -3 9 1 9 9 0 17 -3 19 -12 6z"/>
<path d="M796 10762 c-3 -5 1 -9 9 -9 8 0 12 4 9 9 -3 4 -7 8 -9 8 -2 0 -6 -4
-9 -8z"/>
<path d="M915 10720 c-3 -5 -1 -10 4 -10 6 0 11 5 11 10 0 6 -2 10 -4 10 -3 0
-8 -4 -11 -10z"/>
<path d="M1347 10599 c7 -7 15 -10 18 -7 3 3 -2 9 -12 12 -14 6 -15 5 -6 -5z"/>
<path d="M1427 10599 c7 -7 15 -10 18 -7 3 3 -2 9 -12 12 -14 6 -15 5 -6 -5z"/>
<path d="M1507 10599 c7 -7 15 -10 18 -7 3 3 -2 9 -12 12 -14 6 -15 5 -6 -5z"/>
<path d="M1586 10598 c3 -5 10 -6 15 -3 13 9 11 12 -6 12 -8 0 -12 -4 -9 -9z"/>
<path d="M1665 10599 c-3 -4 2 -6 10 -5 21 3 28 13 10 13 -9 0 -18 -4 -20 -8z"/>
<path d="M1350 10520 c0 -5 5 -10 11 -10 5 0 7 5 4 10 -3 6 -8 10 -11 10 -2 0
-4 -4 -4 -10z"/>
<path d="M1510 10520 c0 -5 5 -10 11 -10 5 0 7 5 4 10 -3 6 -8 10 -11 10 -2 0
-4 -4 -4 -10z"/>
<path d="M2195 10521 c-3 -5 -2 -12 3 -15 5 -3 9 1 9 9 0 17 -3 19 -12 6z"/>
<path d="M1595 10451 c-3 -5 -2 -12 3 -15 5 -3 9 1 9 9 0 17 -3 19 -12 6z"/>
<path d="M1677 10453 c-10 -9 -9 -23 1 -23 5 0 9 7 9 15 0 17 -1 18 -10 8z"/>
<path d="M1355 10440 c3 -5 8 -10 11 -10 2 0 4 5 4 10 0 6 -5 10 -11 10 -5 0
-7 -4 -4 -10z"/>
<path d="M1430 10440 c0 -5 5 -10 11 -10 5 0 7 5 4 10 -3 6 -8 10 -11 10 -2 0
-4 -4 -4 -10z"/>
<path d="M1515 10440 c3 -5 8 -10 11 -10 2 0 4 5 4 10 0 6 -5 10 -11 10 -5 0
-7 -4 -4 -10z"/>
<path d="M1750 10439 c0 -5 5 -7 10 -4 6 3 10 8 10 11 0 2 -4 4 -10 4 -5 0
-10 -5 -10 -11z"/>
<path d="M1274 10366 c1 -8 5 -18 8 -22 4 -3 5 1 4 10 -1 8 -5 18 -8 22 -4 3
-5 -1 -4 -10z"/>
<path d="M1350 10360 c0 -5 5 -10 11 -10 5 0 7 5 4 10 -3 6 -8 10 -11 10 -2 0
-4 -4 -4 -10z"/>
<path d="M1426 10358 c3 -4 9 -8 15 -8 5 0 9 4 9 8 0 5 -7 9 -15 9 -8 0 -12
-4 -9 -9z"/>
<path d="M1515 10360 c-3 -5 -1 -10 4 -10 6 0 11 5 11 10 0 6 -2 10 -4 10 -3
0 -8 -4 -11 -10z"/>
<path d="M1590 10359 c0 -5 5 -7 10 -4 6 3 10 8 10 11 0 2 -4 4 -10 4 -5 0
-10 -5 -10 -11z"/>
<path d="M1675 10360 c-3 -5 -1 -10 4 -10 6 0 11 5 11 10 0 6 -2 10 -4 10 -3
0 -8 -4 -11 -10z"/>
<path d="M1755 10360 c-3 -5 -1 -10 4 -10 6 0 11 5 11 10 0 6 -2 10 -4 10 -3
0 -8 -4 -11 -10z"/>
<path d="M1830 10359 c0 -5 5 -7 10 -4 6 3 10 8 10 11 0 2 -4 4 -10 4 -5 0
-10 -5 -10 -11z"/>
<path d="M627 10319 c7 -7 15 -10 18 -7 3 3 -2 9 -12 12 -14 6 -15 5 -6 -5z"/>
<path d="M1176 10278 c3 -5 10 -6 15 -3 13 9 11 12 -6 12 -8 0 -12 -4 -9 -9z"/>
<path d="M1426 10278 c3 -5 10 -6 15 -3 13 9 11 12 -6 12 -8 0 -12 -4 -9 -9z"/>
<path d="M1515 10280 c-3 -5 -1 -10 4 -10 6 0 11 5 11 10 0 6 -2 10 -4 10 -3
0 -8 -4 -11 -10z"/>
<path d="M1670 10279 c0 -5 5 -7 10 -4 6 3 10 8 10 11 0 2 -4 4 -10 4 -5 0
-10 -5 -10 -11z"/>
<path d="M1756 10282 c-3 -5 1 -9 9 -9 8 0 12 4 9 9 -3 4 -7 8 -9 8 -2 0 -6
-4 -9 -8z"/>
<path d="M835 10240 c3 -5 8 -10 11 -10 2 0 4 5 4 10 0 6 -5 10 -11 10 -5 0
-7 -4 -4 -10z"/>
<path d="M915 10240 c3 -5 8 -10 11 -10 2 0 4 5 4 10 0 6 -5 10 -11 10 -5 0
-7 -4 -4 -10z"/>
<path d="M990 10240 c0 -5 5 -10 11 -10 5 0 7 5 4 10 -3 6 -8 10 -11 10 -2 0
-4 -4 -4 -10z"/>
<path d="M1075 10240 c3 -5 8 -10 11 -10 2 0 4 5 4 10 0 6 -5 10 -11 10 -5 0
-7 -4 -4 -10z"/>
<path d="M1155 10240 c3 -5 8 -10 11 -10 2 0 4 5 4 10 0 6 -5 10 -11 10 -5 0
-7 -4 -4 -10z"/>
<path d="M1230 10240 c0 -5 5 -10 11 -10 5 0 7 5 4 10 -3 6 -8 10 -11 10 -2 0
-4 -4 -4 -10z"/>
<path d="M1355 10200 c-3 -5 -1 -10 4 -10 6 0 11 5 11 10 0 6 -2 10 -4 10 -3
0 -8 -4 -11 -10z"/>
<path d="M1510 10199 c0 -5 5 -7 10 -4 6 3 10 8 10 11 0 2 -4 4 -10 4 -5 0
-10 -5 -10 -11z"/>
<path d="M1595 10200 c-3 -5 -1 -10 4 -10 6 0 11 5 11 10 0 6 -2 10 -4 10 -3
0 -8 -4 -11 -10z"/>
<path d="M1670 10199 c0 -5 5 -7 10 -4 6 3 10 8 10 11 0 2 -4 4 -10 4 -5 0
-10 -5 -10 -11z"/>
<path d="M1750 10200 c0 -5 5 -10 10 -10 6 0 10 5 10 10 0 6 -4 10 -10 10 -5
0 -10 -4 -10 -10z"/>
<path d="M1835 10200 c3 -5 8 -10 11 -10 2 0 4 5 4 10 0 6 -5 10 -11 10 -5 0
-7 -4 -4 -10z"/>
<path d="M2075 10200 c3 -5 8 -10 11 -10 2 0 4 5 4 10 0 6 -5 10 -11 10 -5 0
-7 -4 -4 -10z"/>
<path d="M750 10159 c0 -5 5 -7 10 -4 6 3 10 8 10 11 0 2 -4 4 -10 4 -5 0 -10
-5 -10 -11z"/>
<path d="M835 10160 c3 -5 8 -10 11 -10 2 0 4 5 4 10 0 6 -5 10 -11 10 -5 0
-7 -4 -4 -10z"/>
<path d="M910 10160 c0 -5 5 -10 11 -10 5 0 7 5 4 10 -3 6 -8 10 -11 10 -2 0
-4 -4 -4 -10z"/>
<path d="M995 10160 c3 -5 8 -10 11 -10 2 0 4 5 4 10 0 6 -5 10 -11 10 -5 0
-7 -4 -4 -10z"/>
<path d="M1075 10160 c3 -5 8 -10 11 -10 2 0 4 5 4 10 0 6 -5 10 -11 10 -5 0
-7 -4 -4 -10z"/>
<path d="M1230 10160 c0 -5 5 -10 11 -10 5 0 7 5 4 10 -3 6 -8 10 -11 10 -2 0
-4 -4 -4 -10z"/>
<path d="M2075 10141 c-3 -5 -2 -12 3 -15 5 -3 9 1 9 9 0 17 -3 19 -12 6z"/>
<path d="M1435 10120 c-3 -5 -1 -10 4 -10 6 0 11 5 11 10 0 6 -2 10 -4 10 -3
0 -8 -4 -11 -10z"/>
<path d="M1513 10115 c0 -8 4 -12 9 -9 4 3 8 9 8 15 0 5 -4 9 -8 9 -5 0 -9 -7
-9 -15z"/>
<path d="M1593 10115 c0 -8 4 -12 9 -9 5 3 6 10 3 15 -9 13 -12 11 -12 -6z"/>
<path d="M1675 10120 c-3 -5 -1 -10 4 -10 6 0 11 5 11 10 0 6 -2 10 -4 10 -3
0 -8 -4 -11 -10z"/>
<path d="M1755 10120 c3 -5 8 -10 11 -10 2 0 4 5 4 10 0 6 -5 10 -11 10 -5 0
-7 -4 -4 -10z"/>
<path d="M1830 10120 c0 -5 5 -10 11 -10 5 0 7 5 4 10 -3 6 -8 10 -11 10 -2 0
-4 -4 -4 -10z"/>
<path d="M755 10080 c-3 -5 -1 -10 4 -10 6 0 11 5 11 10 0 6 -2 10 -4 10 -3 0
-8 -4 -11 -10z"/>
<path d="M830 10079 c0 -5 5 -7 10 -4 6 3 10 8 10 11 0 2 -4 4 -10 4 -5 0 -10
-5 -10 -11z"/>
<path d="M915 10080 c-3 -5 -1 -10 4 -10 6 0 11 5 11 10 0 6 -2 10 -4 10 -3 0
-8 -4 -11 -10z"/>
<path d="M513 10045 c0 -8 4 -12 9 -9 5 3 6 10 3 15 -9 13 -12 11 -12 -6z"/>
<path d="M1675 10040 c3 -5 8 -10 11 -10 2 0 4 5 4 10 0 6 -5 10 -11 10 -5 0
-7 -4 -4 -10z"/>
<path d="M1835 10040 c3 -5 8 -10 11 -10 2 0 4 5 4 10 0 6 -5 10 -11 10 -5 0
-7 -4 -4 -10z"/>
<path d="M750 9999 c0 -5 5 -7 10 -4 6 3 10 8 10 11 0 2 -4 4 -10 4 -5 0 -10
-5 -10 -11z"/>
<path d="M830 9999 c0 -5 5 -7 10 -4 6 3 10 8 10 11 0 2 -4 4 -10 4 -5 0 -10
-5 -10 -11z"/>
<path d="M910 9999 c0 -5 5 -7 10 -4 6 3 10 8 10 11 0 2 -4 4 -10 4 -5 0 -10
-5 -10 -11z"/>
<path d="M1505 9959 c-3 -4 2 -6 10 -5 21 3 28 13 10 13 -9 0 -18 -4 -20 -8z"/>
<path d="M1596 9962 c-3 -5 1 -9 9 -9 8 0 12 4 9 9 -3 4 -7 8 -9 8 -2 0 -6 -4
-9 -8z"/>
<path d="M1670 9966 c0 -2 7 -7 16 -10 8 -3 12 -2 9 4 -6 10 -25 14 -25 6z"/>
<path d="M1750 9966 c0 -2 7 -7 16 -10 8 -3 12 -2 9 4 -6 10 -25 14 -25 6z"/>
<path d="M1830 9966 c0 -2 7 -7 16 -10 8 -3 12 -2 9 4 -6 10 -25 14 -25 6z"/>
<path d="M2054 9932 c0 -10 6 -19 13 -19 8 0 9 6 2 19 -5 10 -11 18 -12 18 -2
0 -3 -8 -3 -18z"/>
<path d="M480 9920 c-9 -6 -10 -10 -3 -10 6 0 15 5 18 10 8 12 4 12 -15 0z"/>
<path d="M790 9640 c0 -5 5 -10 11 -10 5 0 7 5 4 10 -3 6 -8 10 -11 10 -2 0
-4 -4 -4 -10z"/>
<path d="M635 9560 c3 -5 8 -10 11 -10 2 0 4 5 4 10 0 6 -5 10 -11 10 -5 0 -7
-4 -4 -10z"/>
<path d="M710 9559 c0 -5 5 -7 10 -4 6 3 10 8 10 11 0 2 -4 4 -10 4 -5 0 -10
-5 -10 -11z"/>
<path d="M790 9560 c0 -5 5 -10 10 -10 6 0 10 5 10 10 0 6 -4 10 -10 10 -5 0
-10 -4 -10 -10z"/>
<path d="M875 9560 c3 -5 8 -10 11 -10 2 0 4 5 4 10 0 6 -5 10 -11 10 -5 0 -7
-4 -4 -10z"/>
<path d="M950 9560 c0 -5 5 -10 11 -10 5 0 7 5 4 10 -3 6 -8 10 -11 10 -2 0
-4 -4 -4 -10z"/>
<path d="M1035 9560 c3 -5 8 -10 11 -10 2 0 4 5 4 10 0 6 -5 10 -11 10 -5 0
-7 -4 -4 -10z"/>
<path d="M1190 9560 c0 -5 5 -10 11 -10 5 0 7 5 4 10 -3 6 -8 10 -11 10 -2 0
-4 -4 -4 -10z"/>
<path d="M715 9480 c-3 -5 -1 -10 4 -10 6 0 11 5 11 10 0 6 -2 10 -4 10 -3 0
-8 -4 -11 -10z"/>
<path d="M790 9479 c0 -5 5 -7 10 -4 6 3 10 8 10 11 0 2 -4 4 -10 4 -5 0 -10
-5 -10 -11z"/>
<path d="M870 9480 c0 -5 5 -10 11 -10 5 0 7 5 4 10 -3 6 -8 10 -11 10 -2 0
-4 -4 -4 -10z"/>
<path d="M1030 9481 c0 -6 4 -12 8 -15 5 -3 9 1 9 9 0 8 -4 15 -9 15 -4 0 -8
-4 -8 -9z"/>
<path d="M1110 9480 c0 -5 5 -10 11 -10 5 0 7 5 4 10 -3 6 -8 10 -11 10 -2 0
-4 -4 -4 -10z"/>
<path d="M710 9399 c0 -5 5 -7 10 -4 6 3 10 8 10 11 0 2 -4 4 -10 4 -5 0 -10
-5 -10 -11z"/>
<path d="M870 9399 c0 -5 5 -7 10 -4 6 3 10 8 10 11 0 2 -4 4 -10 4 -5 0 -10
-5 -10 -11z"/>
<path d="M595 9360 c-3 -5 -1 -10 4 -10 6 0 11 5 11 10 0 6 -2 10 -4 10 -3 0
-8 -4 -11 -10z"/>
<path d="M705 9320 c-3 -6 1 -7 9 -4 18 7 21 14 7 14 -6 0 -13 -4 -16 -10z"/>
<path d="M785 9320 c-3 -6 1 -7 9 -4 18 7 21 14 7 14 -6 0 -13 -4 -16 -10z"/>
<path d="M865 9320 c-3 -6 1 -7 9 -4 18 7 21 14 7 14 -6 0 -13 -4 -16 -10z"/>
<path d="M946 9322 c-3 -5 1 -9 9 -9 8 0 12 4 9 9 -3 4 -7 8 -9 8 -2 0 -6 -4
-9 -8z"/>
<path d="M1630 9280 c0 -5 5 -10 11 -10 5 0 7 5 4 10 -3 6 -8 10 -11 10 -2 0
-4 -4 -4 -10z"/>
<path d="M1710 9280 c0 -5 5 -10 11 -10 5 0 7 5 4 10 -3 6 -8 10 -11 10 -2 0
-4 -4 -4 -10z"/>
<path d="M1790 9280 c0 -5 5 -10 11 -10 5 0 7 5 4 10 -3 6 -8 10 -11 10 -2 0
-4 -4 -4 -10z"/>
<path d="M1870 9280 c0 -5 5 -10 11 -10 5 0 7 5 4 10 -3 6 -8 10 -11 10 -2 0
-4 -4 -4 -10z"/>
<path d="M516 9233 c-6 -14 -5 -15 5 -6 7 7 10 15 7 18 -3 3 -9 -2 -12 -12z"/>
<path d="M1915 9220 c3 -5 8 -10 11 -10 2 0 4 5 4 10 0 6 -5 10 -11 10 -5 0
-7 -4 -4 -10z"/>
<path d="M1630 9200 c0 -5 5 -10 11 -10 5 0 7 5 4 10 -3 6 -8 10 -11 10 -2 0
-4 -4 -4 -10z"/>
<path d="M1715 9200 c3 -5 8 -10 11 -10 2 0 4 5 4 10 0 6 -5 10 -11 10 -5 0
-7 -4 -4 -10z"/>
<path d="M1790 9200 c0 -5 5 -10 11 -10 5 0 7 5 4 10 -3 6 -8 10 -11 10 -2 0
-4 -4 -4 -10z"/>
<path d="M1875 9200 c-3 -5 -1 -10 4 -10 6 0 11 5 11 10 0 6 -2 10 -4 10 -3 0
-8 -4 -11 -10z"/>
<path d="M1910 9176 c0 -2 8 -10 18 -17 15 -13 16 -12 3 4 -13 16 -21 21 -21
13z"/>
<path d="M1635 9120 c3 -5 8 -10 11 -10 2 0 4 5 4 10 0 6 -5 10 -11 10 -5 0
-7 -4 -4 -10z"/>
<path d="M1710 9120 c0 -5 5 -10 11 -10 5 0 7 5 4 10 -3 6 -8 10 -11 10 -2 0
-4 -4 -4 -10z"/>
<path d="M1795 9120 c-3 -5 -1 -10 4 -10 6 0 11 5 11 10 0 6 -2 10 -4 10 -3 0
-8 -4 -11 -10z"/>
<path d="M1870 9119 c0 -5 5 -7 10 -4 6 3 10 8 10 11 0 2 -4 4 -10 4 -5 0 -10
-5 -10 -11z"/>
<path d="M1630 9040 c0 -5 5 -10 11 -10 5 0 7 5 4 10 -3 6 -8 10 -11 10 -2 0
-4 -4 -4 -10z"/>
<path d="M1710 9040 c0 -5 5 -10 11 -10 5 0 7 5 4 10 -3 6 -8 10 -11 10 -2 0
-4 -4 -4 -10z"/>
<path d="M1795 9040 c-3 -5 -1 -10 4 -10 6 0 11 5 11 10 0 6 -2 10 -4 10 -3 0
-8 -4 -11 -10z"/>
<path d="M1875 9040 c-3 -5 -1 -10 4 -10 6 0 11 5 11 10 0 6 -2 10 -4 10 -3 0
-8 -4 -11 -10z"/>
<path d="M1589 8923 c-13 -16 -12 -17 4 -4 9 7 17 15 17 17 0 8 -8 3 -21 -13z"/>
<path d="M1357 8853 c-10 -9 -9 -23 1 -23 5 0 9 7 9 15 0 17 -1 18 -10 8z"/>
<path d="M1589 8843 c-13 -16 -12 -17 4 -4 9 7 17 15 17 17 0 8 -8 3 -21 -13z"/>
<path d="M519 8833 c-13 -16 -12 -17 4 -4 16 13 21 21 13 21 -2 0 -10 -8 -17
-17z"/>
<path d="M1430 8839 c0 -5 5 -7 10 -4 6 3 10 8 10 11 0 2 -4 4 -10 4 -5 0 -10
-5 -10 -11z"/>
<path d="M1589 8763 c-13 -16 -12 -17 4 -4 9 7 17 15 17 17 0 8 -8 3 -21 -13z"/>
<path d="M1355 8760 c-3 -5 -1 -10 4 -10 6 0 11 5 11 10 0 6 -2 10 -4 10 -3 0
-8 -4 -11 -10z"/>
<path d="M1510 8759 c0 -5 5 -7 10 -4 6 3 10 8 10 11 0 2 -4 4 -10 4 -5 0 -10
-5 -10 -11z"/>
<path d="M1595 8691 c-3 -5 -2 -12 3 -15 5 -3 9 1 9 9 0 17 -3 19 -12 6z"/>
<path d="M1350 8679 c0 -5 5 -7 10 -4 6 3 10 8 10 11 0 2 -4 4 -10 4 -5 0 -10
-5 -10 -11z"/>
<path d="M1435 8680 c-3 -5 -1 -10 4 -10 6 0 11 5 11 10 0 6 -2 10 -4 10 -3 0
-8 -4 -11 -10z"/>
<path d="M1890 8640 c0 -5 5 -10 11 -10 5 0 7 5 4 10 -3 6 -8 10 -11 10 -2 0
-4 -4 -4 -10z"/>
<path d="M1594 8606 c1 -8 5 -18 8 -22 4 -3 5 1 4 10 -1 8 -5 18 -8 22 -4 3
-5 -1 -4 -10z"/>
<path d="M546 8602 c-3 -5 1 -9 9 -9 8 0 12 4 9 9 -3 4 -7 8 -9 8 -2 0 -6 -4
-9 -8z"/>
<path d="M1350 8599 c0 -5 5 -7 10 -4 6 3 10 8 10 11 0 2 -4 4 -10 4 -5 0 -10
-5 -10 -11z"/>
<path d="M1430 8600 c0 -5 5 -10 10 -10 6 0 10 5 10 10 0 6 -4 10 -10 10 -5 0
-10 -4 -10 -10z"/>
<path d="M1515 8600 c3 -5 8 -10 11 -10 2 0 4 5 4 10 0 6 -5 10 -11 10 -5 0
-7 -4 -4 -10z"/>
<path d="M953 8575 c0 -8 4 -12 9 -9 5 3 6 10 3 15 -9 13 -12 11 -12 -6z"/>
<path d="M1355 8520 c-3 -5 -1 -10 4 -10 6 0 11 5 11 10 0 6 -2 10 -4 10 -3 0
-8 -4 -11 -10z"/>
<path d="M1435 8520 c3 -5 8 -10 11 -10 2 0 4 5 4 10 0 6 -5 10 -11 10 -5 0
-7 -4 -4 -10z"/>
<path d="M1510 8520 c0 -5 5 -10 11 -10 5 0 7 5 4 10 -3 6 -8 10 -11 10 -2 0
-4 -4 -4 -10z"/>
<path d="M1355 8440 c3 -5 8 -10 11 -10 2 0 4 5 4 10 0 6 -5 10 -11 10 -5 0
-7 -4 -4 -10z"/>
<path d="M1515 8440 c3 -5 8 -10 11 -10 2 0 4 5 4 10 0 6 -5 10 -11 10 -5 0
-7 -4 -4 -10z"/>
<path d="M1674 8366 c1 -8 5 -18 8 -22 4 -3 5 1 4 10 -1 8 -5 18 -8 22 -4 3
-5 -1 -4 -10z"/>
<path d="M1754 8366 c1 -8 5 -18 8 -22 4 -3 5 1 4 10 -1 8 -5 18 -8 22 -4 3
-5 -1 -4 -10z"/>
<path d="M576 8358 c3 -5 10 -6 15 -3 13 9 11 12 -6 12 -8 0 -12 -4 -9 -9z"/>
<path d="M1345 8360 c-3 -6 1 -7 9 -4 18 7 21 14 7 14 -6 0 -13 -4 -16 -10z"/>
<path d="M1425 8360 c-3 -6 1 -7 9 -4 18 7 21 14 7 14 -6 0 -13 -4 -16 -10z"/>
<path d="M1505 8360 c-3 -6 1 -7 9 -4 18 7 21 14 7 14 -6 0 -13 -4 -16 -10z"/>
<path d="M1585 8360 c-3 -6 1 -7 9 -4 18 7 21 14 7 14 -6 0 -13 -4 -16 -10z"/>
<path d="M506 8322 c-3 -5 1 -9 9 -9 8 0 12 4 9 9 -3 4 -7 8 -9 8 -2 0 -6 -4
-9 -8z"/>
<path d="M516 8273 c-6 -14 -5 -15 5 -6 7 7 10 15 7 18 -3 3 -9 -2 -12 -12z"/>
<path d="M1235 8080 c3 -5 8 -10 11 -10 2 0 4 5 4 10 0 6 -5 10 -11 10 -5 0
-7 -4 -4 -10z"/>
<path d="M435 8051 c-3 -5 -2 -12 3 -15 5 -3 9 1 9 9 0 17 -3 19 -12 6z"/>
<path d="M595 8000 c3 -5 8 -10 11 -10 2 0 4 5 4 10 0 6 -5 10 -11 10 -5 0 -7
-4 -4 -10z"/>
<path d="M835 8000 c-3 -5 -1 -10 4 -10 6 0 11 5 11 10 0 6 -2 10 -4 10 -3 0
-8 -4 -11 -10z"/>
<path d="M910 7999 c0 -5 5 -7 10 -4 6 3 10 8 10 11 0 2 -4 4 -10 4 -5 0 -10
-5 -10 -11z"/>
<path d="M990 7999 c0 -5 5 -7 10 -4 6 3 10 8 10 11 0 2 -4 4 -10 4 -5 0 -10
-5 -10 -11z"/>
<path d="M1070 7999 c0 -5 5 -7 10 -4 6 3 10 8 10 11 0 2 -4 4 -10 4 -5 0 -10
-5 -10 -11z"/>
<path d="M1155 8000 c3 -5 8 -10 11 -10 2 0 4 5 4 10 0 6 -5 10 -11 10 -5 0
-7 -4 -4 -10z"/>
<path d="M1235 8000 c3 -5 8 -10 11 -10 2 0 4 5 4 10 0 6 -5 10 -11 10 -5 0
-7 -4 -4 -10z"/>
<path d="M835 7920 c-3 -5 -1 -10 4 -10 6 0 11 5 11 10 0 6 -2 10 -4 10 -3 0
-8 -4 -11 -10z"/>
<path d="M915 7920 c-3 -5 -1 -10 4 -10 6 0 11 5 11 10 0 6 -2 10 -4 10 -3 0
-8 -4 -11 -10z"/>
<path d="M995 7920 c-3 -5 -1 -10 4 -10 6 0 11 5 11 10 0 6 -2 10 -4 10 -3 0
-8 -4 -11 -10z"/>
<path d="M1070 7919 c0 -5 5 -7 10 -4 6 3 10 8 10 11 0 2 -4 4 -10 4 -5 0 -10
-5 -10 -11z"/>
<path d="M1155 7920 c3 -5 8 -10 11 -10 2 0 4 5 4 10 0 6 -5 10 -11 10 -5 0
-7 -4 -4 -10z"/>
<path d="M1230 7920 c0 -5 5 -10 11 -10 5 0 7 5 4 10 -3 6 -8 10 -11 10 -2 0
-4 -4 -4 -10z"/>
<path d="M990 7839 c0 -5 5 -7 10 -4 6 3 10 8 10 11 0 2 -4 4 -10 4 -5 0 -10
-5 -10 -11z"/>
<path d="M1075 7840 c3 -5 8 -10 11 -10 2 0 4 5 4 10 0 6 -5 10 -11 10 -5 0
-7 -4 -4 -10z"/>
<path d="M1150 7840 c0 -5 5 -10 11 -10 5 0 7 5 4 10 -3 6 -8 10 -11 10 -2 0
-4 -4 -4 -10z"/>
<path d="M1235 7840 c3 -5 8 -10 11 -10 2 0 4 5 4 10 0 6 -5 10 -11 10 -5 0
-7 -4 -4 -10z"/>
<path d="M593 7765 c0 -8 4 -12 9 -9 5 3 6 10 3 15 -9 13 -12 11 -12 -6z"/>
<path d="M990 7759 c0 -5 5 -7 10 -4 6 3 10 8 10 11 0 2 -4 4 -10 4 -5 0 -10
-5 -10 -11z"/>
<path d="M1070 7759 c0 -5 5 -7 10 -4 6 3 10 8 10 11 0 2 -4 4 -10 4 -5 0 -10
-5 -10 -11z"/>
<path d="M1155 7760 c3 -5 8 -10 11 -10 2 0 4 5 4 10 0 6 -5 10 -11 10 -5 0
-7 -4 -4 -10z"/>
<path d="M1235 7760 c3 -5 8 -10 11 -10 2 0 4 5 4 10 0 6 -5 10 -11 10 -5 0
-7 -4 -4 -10z"/>
<path d="M433 7725 c0 -8 4 -15 9 -15 4 0 8 4 8 9 0 6 -4 12 -8 15 -5 3 -9 -1
-9 -9z"/>
<path d="M593 7675 c0 -8 4 -12 9 -9 5 3 6 10 3 15 -9 13 -12 11 -12 -6z"/>
<path d="M1635 7680 c3 -5 8 -10 11 -10 2 0 4 5 4 10 0 6 -5 10 -11 10 -5 0
-7 -4 -4 -10z"/>
<path d="M1715 7680 c3 -5 8 -10 11 -10 2 0 4 5 4 10 0 6 -5 10 -11 10 -5 0
-7 -4 -4 -10z"/>
<path d="M1790 7680 c0 -5 5 -10 11 -10 5 0 7 5 4 10 -3 6 -8 10 -11 10 -2 0
-4 -4 -4 -10z"/>
<path d="M1875 7680 c3 -5 8 -10 11 -10 2 0 4 5 4 10 0 6 -5 10 -11 10 -5 0
-7 -4 -4 -10z"/>
<path d="M1030 7640 c0 -5 5 -10 11 -10 5 0 7 5 4 10 -3 6 -8 10 -11 10 -2 0
-4 -4 -4 -10z"/>
<path d="M1190 7640 c0 -5 5 -10 11 -10 5 0 7 5 4 10 -3 6 -8 10 -11 10 -2 0
-4 -4 -4 -10z"/>
<path d="M1635 7600 c3 -5 8 -10 11 -10 2 0 4 5 4 10 0 6 -5 10 -11 10 -5 0
-7 -4 -4 -10z"/>
<path d="M1715 7600 c-3 -5 -1 -10 4 -10 6 0 11 5 11 10 0 6 -2 10 -4 10 -3 0
-8 -4 -11 -10z"/>
<path d="M1795 7600 c3 -5 8 -10 11 -10 2 0 4 5 4 10 0 6 -5 10 -11 10 -5 0
-7 -4 -4 -10z"/>
<path d="M1875 7600 c3 -5 8 -10 11 -10 2 0 4 5 4 10 0 6 -5 10 -11 10 -5 0
-7 -4 -4 -10z"/>
<path d="M1955 7601 c-3 -5 -2 -12 3 -15 5 -3 9 1 9 9 0 17 -3 19 -12 6z"/>
<path d="M1035 7560 c3 -5 8 -10 11 -10 2 0 4 5 4 10 0 6 -5 10 -11 10 -5 0
-7 -4 -4 -10z"/>
<path d="M1110 7560 c0 -5 5 -10 11 -10 5 0 7 5 4 10 -3 6 -8 10 -11 10 -2 0
-4 -4 -4 -10z"/>
<path d="M1190 7559 c0 -5 5 -7 10 -4 6 3 10 8 10 11 0 2 -4 4 -10 4 -5 0 -10
-5 -10 -11z"/>
<path d="M1635 7520 c-3 -5 -1 -10 4 -10 6 0 11 5 11 10 0 6 -2 10 -4 10 -3 0
-8 -4 -11 -10z"/>
<path d="M1710 7519 c0 -5 5 -7 10 -4 6 3 10 8 10 11 0 2 -4 4 -10 4 -5 0 -10
-5 -10 -11z"/>
<path d="M1795 7520 c-3 -5 -1 -10 4 -10 6 0 11 5 11 10 0 6 -2 10 -4 10 -3 0
-8 -4 -11 -10z"/>
<path d="M1875 7520 c-3 -5 -1 -10 4 -10 6 0 11 5 11 10 0 6 -2 10 -4 10 -3 0
-8 -4 -11 -10z"/>
<path d="M954 7486 c1 -8 5 -18 8 -22 4 -3 5 1 4 10 -1 8 -5 18 -8 22 -4 3 -5
-1 -4 -10z"/>
<path d="M1030 7480 c0 -5 5 -10 11 -10 5 0 7 5 4 10 -3 6 -8 10 -11 10 -2 0
-4 -4 -4 -10z"/>
<path d="M1110 7480 c0 -5 5 -10 10 -10 6 0 10 5 10 10 0 6 -4 10 -10 10 -5 0
-10 -4 -10 -10z"/>
<path d="M1195 7480 c-3 -5 -1 -10 4 -10 6 0 11 5 11 10 0 6 -2 10 -4 10 -3 0
-8 -4 -11 -10z"/>
<path d="M675 7440 c-3 -5 -1 -10 4 -10 6 0 11 5 11 10 0 6 -2 10 -4 10 -3 0
-8 -4 -11 -10z"/>
<path d="M1635 7440 c-3 -5 -1 -10 4 -10 6 0 11 5 11 10 0 6 -2 10 -4 10 -3 0
-8 -4 -11 -10z"/>
<path d="M1715 7440 c-3 -5 -1 -10 4 -10 6 0 11 5 11 10 0 6 -2 10 -4 10 -3 0
-8 -4 -11 -10z"/>
<path d="M1790 7439 c0 -5 5 -7 10 -4 6 3 10 8 10 11 0 2 -4 4 -10 4 -5 0 -10
-5 -10 -11z"/>
<path d="M1875 7440 c-3 -5 -1 -10 4 -10 6 0 11 5 11 10 0 6 -2 10 -4 10 -3 0
-8 -4 -11 -10z"/>
<path d="M856 7398 c3 -5 10 -6 15 -3 13 9 11 12 -6 12 -8 0 -12 -4 -9 -9z"/>
<path d="M1106 7398 c3 -5 10 -6 15 -3 13 9 11 12 -6 12 -8 0 -12 -4 -9 -9z"/>
<path d="M1195 7400 c-3 -5 -1 -10 4 -10 6 0 11 5 11 10 0 6 -2 10 -4 10 -3 0
-8 -4 -11 -10z"/>
<path d="M755 7360 c-3 -5 -1 -10 4 -10 6 0 11 5 11 10 0 6 -2 10 -4 10 -3 0
-8 -4 -11 -10z"/>
<path d="M830 7359 c0 -5 5 -7 10 -4 6 3 10 8 10 11 0 2 -4 4 -10 4 -5 0 -10
-5 -10 -11z"/>
<path d="M910 7359 c0 -5 5 -7 10 -4 6 3 10 8 10 11 0 2 -4 4 -10 4 -5 0 -10
-5 -10 -11z"/>
<path d="M1795 7360 c-3 -5 -1 -10 4 -10 6 0 11 5 11 10 0 6 -2 10 -4 10 -3 0
-8 -4 -11 -10z"/>
<path d="M1870 7359 c0 -5 5 -7 10 -4 6 3 10 8 10 11 0 2 -4 4 -10 4 -5 0 -10
-5 -10 -11z"/>
<path d="M1035 7320 c-3 -5 -1 -10 4 -10 6 0 11 5 11 10 0 6 -2 10 -4 10 -3 0
-8 -4 -11 -10z"/>
<path d="M1190 7319 c0 -5 5 -7 10 -4 6 3 10 8 10 11 0 2 -4 4 -10 4 -5 0 -10
-5 -10 -11z"/>
<path d="M750 7279 c0 -5 5 -7 10 -4 6 3 10 8 10 11 0 2 -4 4 -10 4 -5 0 -10
-5 -10 -11z"/>
<path d="M830 7280 c0 -5 5 -10 11 -10 5 0 7 5 4 10 -3 6 -8 10 -11 10 -2 0
-4 -4 -4 -10z"/>
<path d="M910 7279 c0 -5 5 -7 10 -4 6 3 10 8 10 11 0 2 -4 4 -10 4 -5 0 -10
-5 -10 -11z"/>
<path d="M1115 7240 c-3 -5 -1 -10 4 -10 6 0 11 5 11 10 0 6 -2 10 -4 10 -3 0
-8 -4 -11 -10z"/>
<path d="M1193 7235 c0 -8 4 -12 9 -9 4 3 8 9 8 15 0 5 -4 9 -8 9 -5 0 -9 -7
-9 -15z"/>
<path d="M835 7200 c3 -5 8 -10 11 -10 2 0 4 5 4 10 0 6 -5 10 -11 10 -5 0 -7
-4 -4 -10z"/>
<path d="M910 7200 c0 -5 5 -10 11 -10 5 0 7 5 4 10 -3 6 -8 10 -11 10 -2 0
-4 -4 -4 -10z"/>
<path d="M830 7120 c0 -5 5 -10 11 -10 5 0 7 5 4 10 -3 6 -8 10 -11 10 -2 0
-4 -4 -4 -10z"/>
<path d="M910 7120 c0 -5 5 -10 11 -10 5 0 7 5 4 10 -3 6 -8 10 -11 10 -2 0
-4 -4 -4 -10z"/>
<path d="M627 7039 c7 -7 15 -10 18 -7 3 3 -2 9 -12 12 -14 6 -15 5 -6 -5z"/>
<path d="M1916 7007 c3 -10 9 -15 12 -12 3 3 0 11 -7 18 -10 9 -11 8 -5 -6z"/>
<path d="M1990 6999 c0 -5 5 -7 10 -4 6 3 10 8 10 11 0 2 -4 4 -10 4 -5 0 -10
-5 -10 -11z"/>
<path d="M1995 6920 c-3 -5 -1 -10 4 -10 6 0 11 5 11 10 0 6 -2 10 -4 10 -3 0
-8 -4 -11 -10z"/>
<path d="M1990 6839 c0 -5 5 -7 10 -4 6 3 10 8 10 11 0 2 -4 4 -10 4 -5 0 -10
-5 -10 -11z"/>
<path d="M826 6802 c-3 -5 1 -9 9 -9 8 0 12 4 9 9 -3 4 -7 8 -9 8 -2 0 -6 -4
-9 -8z"/>
<path d="M1985 6760 c-3 -6 1 -7 9 -4 18 7 21 14 7 14 -6 0 -13 -4 -16 -10z"/>
<path d="M2070 6761 c0 -6 4 -13 10 -16 6 -3 7 1 4 9 -7 18 -14 21 -14 7z"/>
<path d="M2155 6760 c-3 -5 -1 -10 4 -10 6 0 11 5 11 10 0 6 -2 10 -4 10 -3 0
-8 -4 -11 -10z"/>
<path d="M995 6720 c-3 -5 -1 -10 4 -10 6 0 11 5 11 10 0 6 -2 10 -4 10 -3 0
-8 -4 -11 -10z"/>
<path d="M1075 6720 c-3 -5 -1 -10 4 -10 6 0 11 5 11 10 0 6 -2 10 -4 10 -3 0
-8 -4 -11 -10z"/>
<path d="M2150 6681 c0 -6 4 -13 10 -16 6 -3 7 1 4 9 -7 18 -14 21 -14 7z"/>
<path d="M953 6665 c0 -8 4 -12 9 -9 5 3 6 10 3 15 -9 13 -12 11 -12 -6z"/>
<path d="M990 6639 c0 -5 5 -7 10 -4 6 3 10 8 10 11 0 2 -4 4 -10 4 -5 0 -10
-5 -10 -11z"/>
<path d="M2136 6602 c-3 -5 1 -9 9 -9 8 0 12 4 9 9 -3 4 -7 8 -9 8 -2 0 -6 -4
-9 -8z"/>
<path d="M995 6560 c3 -5 8 -10 11 -10 2 0 4 5 4 10 0 6 -5 10 -11 10 -5 0 -7
-4 -4 -10z"/>
<path d="M1070 6560 c0 -5 5 -10 11 -10 5 0 7 5 4 10 -3 6 -8 10 -11 10 -2 0
-4 -4 -4 -10z"/>
<path d="M953 6485 c0 -8 4 -12 9 -9 5 3 6 10 3 15 -9 13 -12 11 -12 -6z"/>
<path d="M1646 6438 c3 -5 10 -6 15 -3 13 9 11 12 -6 12 -8 0 -12 -4 -9 -9z"/>
<path d="M1950 6399 c0 -5 5 -7 10 -4 6 3 10 8 10 11 0 2 -4 4 -10 4 -5 0 -10
-5 -10 -11z"/>
<path d="M2035 6400 c-3 -5 -1 -10 4 -10 6 0 11 5 11 10 0 6 -2 10 -4 10 -3 0
-8 -4 -11 -10z"/>
<path d="M2110 6399 c0 -5 5 -7 10 -4 6 3 10 8 10 11 0 2 -4 4 -10 4 -5 0 -10
-5 -10 -11z"/>
<path d="M2190 6399 c0 -5 5 -7 10 -4 6 3 10 8 10 11 0 2 -4 4 -10 4 -5 0 -10
-5 -10 -11z"/>
<path d="M1950 6319 c0 -5 5 -7 10 -4 6 3 10 8 10 11 0 2 -4 4 -10 4 -5 0 -10
-5 -10 -11z"/>
<path d="M2030 6319 c0 -5 5 -7 10 -4 6 3 10 8 10 11 0 2 -4 4 -10 4 -5 0 -10
-5 -10 -11z"/>
<path d="M2115 6320 c-3 -5 -1 -10 4 -10 6 0 11 5 11 10 0 6 -2 10 -4 10 -3 0
-8 -4 -11 -10z"/>
<path d="M2190 6319 c0 -5 5 -7 10 -4 6 3 10 8 10 11 0 2 -4 4 -10 4 -5 0 -10
-5 -10 -11z"/>
<path d="M1073 6235 c0 -8 4 -12 9 -9 5 3 6 10 3 15 -9 13 -12 11 -12 -6z"/>
<path d="M1950 6240 c0 -5 5 -10 11 -10 5 0 7 5 4 10 -3 6 -8 10 -11 10 -2 0
-4 -4 -4 -10z"/>
<path d="M2030 6240 c0 -5 5 -10 11 -10 5 0 7 5 4 10 -3 6 -8 10 -11 10 -2 0
-4 -4 -4 -10z"/>
<path d="M2110 6239 c0 -5 5 -7 10 -4 6 3 10 8 10 11 0 2 -4 4 -10 4 -5 0 -10
-5 -10 -11z"/>
<path d="M2190 6239 c0 -5 5 -7 10 -4 6 3 10 8 10 11 0 2 -4 4 -10 4 -5 0 -10
-5 -10 -11z"/>
<path d="M1950 6160 c0 -5 5 -10 11 -10 5 0 7 5 4 10 -3 6 -8 10 -11 10 -2 0
-4 -4 -4 -10z"/>
<path d="M2035 6160 c3 -5 8 -10 11 -10 2 0 4 5 4 10 0 6 -5 10 -11 10 -5 0
-7 -4 -4 -10z"/>
<path d="M2110 6160 c0 -5 5 -10 11 -10 5 0 7 5 4 10 -3 6 -8 10 -11 10 -2 0
-4 -4 -4 -10z"/>
<path d="M2190 6159 c0 -5 5 -7 10 -4 6 3 10 8 10 11 0 2 -4 4 -10 4 -5 0 -10
-5 -10 -11z"/>
<path d="M1955 6080 c3 -5 8 -10 11 -10 2 0 4 5 4 10 0 6 -5 10 -11 10 -5 0
-7 -4 -4 -10z"/>
<path d="M2030 6080 c0 -5 5 -10 11 -10 5 0 7 5 4 10 -3 6 -8 10 -11 10 -2 0
-4 -4 -4 -10z"/>
<path d="M1670 6040 c0 -5 5 -10 11 -10 5 0 7 5 4 10 -3 6 -8 10 -11 10 -2 0
-4 -4 -4 -10z"/>
<path d="M1830 6040 c0 -5 5 -10 11 -10 5 0 7 5 4 10 -3 6 -8 10 -11 10 -2 0
-4 -4 -4 -10z"/>
<path d="M1230 5999 c0 -5 5 -7 10 -4 6 3 10 8 10 11 0 2 -4 4 -10 4 -5 0 -10
-5 -10 -11z"/>
<path d="M1950 6000 c0 -5 5 -10 11 -10 5 0 7 5 4 10 -3 6 -8 10 -11 10 -2 0
-4 -4 -4 -10z"/>
<path d="M2030 6000 c0 -5 5 -10 11 -10 5 0 7 5 4 10 -3 6 -8 10 -11 10 -2 0
-4 -4 -4 -10z"/>
<path d="M2270 6000 c0 -5 5 -10 11 -10 5 0 7 5 4 10 -3 6 -8 10 -11 10 -2 0
-4 -4 -4 -10z"/>
<path d="M2350 6000 c0 -5 5 -10 11 -10 5 0 7 5 4 10 -3 6 -8 10 -11 10 -2 0
-4 -4 -4 -10z"/>
<path d="M1675 5960 c3 -5 8 -10 11 -10 2 0 4 5 4 10 0 6 -5 10 -11 10 -5 0
-7 -4 -4 -10z"/>
<path d="M1750 5960 c0 -5 5 -10 11 -10 5 0 7 5 4 10 -3 6 -8 10 -11 10 -2 0
-4 -4 -4 -10z"/>
<path d="M1830 5959 c0 -5 5 -7 10 -4 6 3 10 8 10 11 0 2 -4 4 -10 4 -5 0 -10
-5 -10 -11z"/>
<path d="M1913 5945 c0 -8 4 -12 9 -9 5 3 6 10 3 15 -9 13 -12 11 -12 -6z"/>
<path d="M1950 5920 c0 -5 5 -10 11 -10 5 0 7 5 4 10 -3 6 -8 10 -11 10 -2 0
-4 -4 -4 -10z"/>
<path d="M2270 5920 c0 -5 5 -10 11 -10 5 0 7 5 4 10 -3 6 -8 10 -11 10 -2 0
-4 -4 -4 -10z"/>
<path d="M1915 5889 c-4 -6 -5 -12 -2 -15 2 -3 7 2 10 11 7 17 1 20 -8 4z"/>
<path d="M1670 5880 c0 -5 5 -10 11 -10 5 0 7 5 4 10 -3 6 -8 10 -11 10 -2 0
-4 -4 -4 -10z"/>
<path d="M1750 5880 c0 -5 5 -10 10 -10 6 0 10 5 10 10 0 6 -4 10 -10 10 -5 0
-10 -4 -10 -10z"/>
<path d="M1835 5880 c-3 -5 -1 -10 4 -10 6 0 11 5 11 10 0 6 -2 10 -4 10 -3 0
-8 -4 -11 -10z"/>
<path d="M1955 5840 c3 -5 8 -10 11 -10 2 0 4 5 4 10 0 6 -5 10 -11 10 -5 0
-7 -4 -4 -10z"/>
<path d="M2275 5840 c3 -5 8 -10 11 -10 2 0 4 5 4 10 0 6 -5 10 -11 10 -5 0
-7 -4 -4 -10z"/>
<path d="M1950 5760 c0 -5 5 -10 11 -10 5 0 7 5 4 10 -3 6 -8 10 -11 10 -2 0
-4 -4 -4 -10z"/>
<path d="M2030 5760 c0 -5 5 -10 11 -10 5 0 7 5 4 10 -3 6 -8 10 -11 10 -2 0
-4 -4 -4 -10z"/>
<path d="M2115 5760 c-3 -5 -1 -10 4 -10 6 0 11 5 11 10 0 6 -2 10 -4 10 -3 0
-8 -4 -11 -10z"/>
<path d="M2195 5760 c-3 -5 -1 -10 4 -10 6 0 11 5 11 10 0 6 -2 10 -4 10 -3 0
-8 -4 -11 -10z"/>
<path d="M1746 5722 c-3 -5 1 -9 9 -9 8 0 15 4 15 9 0 4 -4 8 -9 8 -6 0 -12
-4 -15 -8z"/>
<path d="M1835 5720 c-3 -5 -1 -10 4 -10 6 0 11 5 11 10 0 6 -2 10 -4 10 -3 0
-8 -4 -11 -10z"/>
<path d="M1910 5721 c0 -6 4 -13 10 -16 6 -3 7 1 4 9 -7 18 -14 21 -14 7z"/>
<path d="M1950 5680 c0 -5 5 -10 11 -10 5 0 7 5 4 10 -3 6 -8 10 -11 10 -2 0
-4 -4 -4 -10z"/>
<path d="M2035 5680 c-3 -5 -1 -10 4 -10 6 0 11 5 11 10 0 6 -2 10 -4 10 -3 0
-8 -4 -11 -10z"/>
<path d="M2110 5679 c0 -5 5 -7 10 -4 6 3 10 8 10 11 0 2 -4 4 -10 4 -5 0 -10
-5 -10 -11z"/>
<path d="M2195 5680 c-3 -5 -1 -10 4 -10 6 0 11 5 11 10 0 6 -2 10 -4 10 -3 0
-8 -4 -11 -10z"/>
<path d="M1119 5653 c-13 -16 -12 -17 4 -4 16 13 21 21 13 21 -2 0 -10 -8 -17
-17z"/>
<path d="M1750 5639 c0 -5 5 -7 10 -4 6 3 10 8 10 11 0 2 -4 4 -10 4 -5 0 -10
-5 -10 -11z"/>
<path d="M1260 5606 c0 -2 8 -10 18 -17 15 -13 16 -12 3 4 -13 16 -21 21 -21
13z"/>
<path d="M1955 5600 c3 -5 8 -10 11 -10 2 0 4 5 4 10 0 6 -5 10 -11 10 -5 0
-7 -4 -4 -10z"/>
<path d="M2030 5600 c0 -5 5 -10 11 -10 5 0 7 5 4 10 -3 6 -8 10 -11 10 -2 0
-4 -4 -4 -10z"/>
<path d="M2115 5600 c-3 -5 -1 -10 4 -10 6 0 11 5 11 10 0 6 -2 10 -4 10 -3 0
-8 -4 -11 -10z"/>
<path d="M2190 5599 c0 -5 5 -7 10 -4 6 3 10 8 10 11 0 2 -4 4 -10 4 -5 0 -10
-5 -10 -11z"/>
<path d="M1516 5553 c-6 -14 -5 -15 5 -6 7 7 10 15 7 18 -3 3 -9 -2 -12 -12z"/>
<path d="M1830 5559 c0 -5 5 -7 10 -4 6 3 10 8 10 11 0 2 -4 4 -10 4 -5 0 -10
-5 -10 -11z"/>
<path d="M1950 5520 c0 -5 5 -10 11 -10 5 0 7 5 4 10 -3 6 -8 10 -11 10 -2 0
-4 -4 -4 -10z"/>
<path d="M2030 5520 c0 -5 5 -10 11 -10 5 0 7 5 4 10 -3 6 -8 10 -11 10 -2 0
-4 -4 -4 -10z"/>
<path d="M2115 5520 c-3 -5 -1 -10 4 -10 6 0 11 5 11 10 0 6 -2 10 -4 10 -3 0
-8 -4 -11 -10z"/>
<path d="M2195 5520 c-3 -5 -1 -10 4 -10 6 0 11 5 11 10 0 6 -2 10 -4 10 -3 0
-8 -4 -11 -10z"/>
<path d="M2275 5520 c-3 -5 -1 -10 4 -10 6 0 11 5 11 10 0 6 -2 10 -4 10 -3 0
-8 -4 -11 -10z"/>
<path d="M2350 5519 c0 -5 5 -7 10 -4 6 3 10 8 10 11 0 2 -4 4 -10 4 -5 0 -10
-5 -10 -11z"/>
<path d="M1950 5440 c0 -5 5 -10 11 -10 5 0 7 5 4 10 -3 6 -8 10 -11 10 -2 0
-4 -4 -4 -10z"/>
<path d="M2670 5445 c0 -5 5 -17 10 -25 5 -8 10 -10 10 -5 0 6 -5 17 -10 25
-5 8 -10 11 -10 5z"/>
<path d="M1955 5360 c3 -5 8 -10 11 -10 2 0 4 5 4 10 0 6 -5 10 -11 10 -5 0
-7 -4 -4 -10z"/>
<path d="M2035 5360 c3 -5 8 -10 11 -10 2 0 4 5 4 10 0 6 -5 10 -11 10 -5 0
-7 -4 -4 -10z"/>
<path d="M2595 5360 c-3 -5 -1 -10 4 -10 6 0 11 5 11 10 0 6 -2 10 -4 10 -3 0
-8 -4 -11 -10z"/>
<path d="M2670 5359 c0 -5 5 -7 10 -4 6 3 10 8 10 11 0 2 -4 4 -10 4 -5 0 -10
-5 -10 -11z"/>
<path d="M1513 5315 c0 -8 4 -12 9 -9 5 3 6 10 3 15 -9 13 -12 11 -12 -6z"/>
<path d="M1635 5321 c-3 -5 -2 -12 3 -15 5 -3 9 1 9 9 0 17 -3 19 -12 6z"/>
<path d="M2590 5279 c0 -5 5 -7 10 -4 6 3 10 8 10 11 0 2 -4 4 -10 4 -5 0 -10
-5 -10 -11z"/>
<path d="M2675 5280 c3 -5 8 -10 11 -10 2 0 4 5 4 10 0 6 -5 10 -11 10 -5 0
-7 -4 -4 -10z"/>
<path d="M2590 5199 c0 -5 5 -7 10 -4 6 3 10 8 10 11 0 2 -4 4 -10 4 -5 0 -10
-5 -10 -11z"/>
<path d="M2670 5199 c0 -5 5 -7 10 -4 6 3 10 8 10 11 0 2 -4 4 -10 4 -5 0 -10
-5 -10 -11z"/>
<path d="M1793 5035 c0 -8 4 -12 9 -9 5 3 6 10 3 15 -9 13 -12 11 -12 -6z"/>
<path d="M1640 4960 c-9 -6 -10 -10 -3 -10 6 0 15 5 18 10 8 12 4 12 -15 0z"/>
<path d="M2976 4922 c-3 -5 1 -9 9 -9 8 0 12 4 9 9 -3 4 -7 8 -9 8 -2 0 -6 -4
-9 -8z"/>
<path d="M1956 4882 c-3 -5 1 -9 9 -9 8 0 12 4 9 9 -3 4 -7 8 -9 8 -2 0 -6 -4
-9 -8z"/>
<path d="M3114 4689 c-3 -6 -2 -15 3 -20 5 -5 9 -1 9 11 0 23 -2 24 -12 9z"/>
<path d="M1910 4642 c0 -5 7 -9 15 -9 8 0 12 4 9 9 -3 4 -9 8 -15 8 -5 0 -9
-4 -9 -8z"/>
<path d="M2270 4639 c0 -5 5 -7 10 -4 6 3 10 8 10 11 0 2 -4 4 -10 4 -5 0 -10
-5 -10 -11z"/>
<path d="M2350 4639 c0 -5 5 -7 10 -4 6 3 10 8 10 11 0 2 -4 4 -10 4 -5 0 -10
-5 -10 -11z"/>
<path d="M3110 4600 c0 -5 5 -10 11 -10 5 0 7 5 4 10 -3 6 -8 10 -11 10 -2 0
-4 -4 -4 -10z"/>
<path d="M2230 4559 c0 -5 5 -7 10 -4 6 3 10 8 10 11 0 2 -4 4 -10 4 -5 0 -10
-5 -10 -11z"/>
<path d="M2273 4555 c0 -8 4 -12 9 -9 5 3 6 10 3 15 -9 13 -12 11 -12 -6z"/>
<path d="M2350 4559 c0 -5 5 -7 10 -4 6 3 10 8 10 11 0 2 -4 4 -10 4 -5 0 -10
-5 -10 -11z"/>
<path d="M2227 4319 c7 -7 15 -10 18 -7 3 3 -2 9 -12 12 -14 6 -15 5 -6 -5z"/>
<path d="M2515 4321 c-3 -5 -2 -12 3 -15 5 -3 9 1 9 9 0 17 -3 19 -12 6z"/>
<path d="M2175 4280 c3 -5 8 -10 11 -10 2 0 4 5 4 10 0 6 -5 10 -11 10 -5 0
-7 -4 -4 -10z"/>
<path d="M2590 4281 c0 -6 4 -13 10 -16 6 -3 7 1 4 9 -7 18 -14 21 -14 7z"/>
<path d="M2470 4136 c0 -2 8 -10 18 -17 15 -13 16 -12 3 4 -13 16 -21 21 -21
13z"/>
<path d="M2395 4049 c-4 -6 -5 -12 -2 -15 2 -3 7 2 10 11 7 17 1 20 -8 4z"/>
<path d="M3595 4040 c3 -5 8 -10 11 -10 2 0 4 5 4 10 0 6 -5 10 -11 10 -5 0
-7 -4 -4 -10z"/>
<path d="M2990 4000 c0 -5 5 -10 11 -10 5 0 7 5 4 10 -3 6 -8 10 -11 10 -2 0
-4 -4 -4 -10z"/>
<path d="M2996 3922 c-3 -5 1 -9 9 -9 8 0 12 4 9 9 -3 4 -7 8 -9 8 -2 0 -6 -4
-9 -8z"/>
<path d="M3075 3851 c-3 -5 -2 -12 3 -15 5 -3 9 1 9 9 0 17 -3 19 -12 6z"/>
<path d="M3270 3806 c0 -2 7 -7 16 -10 8 -3 12 -2 9 4 -6 10 -25 14 -25 6z"/>
<path d="M3355 3791 c-3 -5 -2 -12 3 -15 5 -3 9 1 9 9 0 17 -3 19 -12 6z"/>
<path d="M3185 3720 c-3 -6 1 -7 9 -4 18 7 21 14 7 14 -6 0 -13 -4 -16 -10z"/>
<path d="M3070 3640 c0 -5 5 -10 11 -10 5 0 7 5 4 10 -3 6 -8 10 -11 10 -2 0
-4 -4 -4 -10z"/>
<path d="M3350 3606 c0 -2 7 -7 16 -10 8 -3 12 -2 9 4 -6 10 -25 14 -25 6z"/>
<path d="M3990 3586 c0 -2 7 -7 16 -10 8 -3 12 -2 9 4 -6 10 -25 14 -25 6z"/>
<path d="M3553 3515 c0 -8 4 -12 9 -9 5 3 6 10 3 15 -9 13 -12 11 -12 -6z"/>
<path d="M3110 3456 c0 -2 8 -10 18 -17 15 -13 16 -12 3 4 -13 16 -21 21 -21
13z"/>
<path d="M4153 3425 c0 -8 4 -15 9 -15 4 0 8 4 8 9 0 6 -4 12 -8 15 -5 3 -9
-1 -9 -9z"/>
<path d="M4056 3398 c3 -5 10 -6 15 -3 13 9 11 12 -6 12 -8 0 -12 -4 -9 -9z"/>
<path d="M3793 3365 c0 -8 4 -12 9 -9 5 3 6 10 3 15 -9 13 -12 11 -12 -6z"/>
<path d="M3753 3355 c0 -8 4 -12 9 -9 5 3 6 10 3 15 -9 13 -12 11 -12 -6z"/>
<path d="M4075 3331 c-3 -5 -2 -12 3 -15 5 -3 9 1 9 9 0 17 -3 19 -12 6z"/>
<path d="M4350 3119 c0 -5 5 -7 10 -4 6 3 10 8 10 11 0 2 -4 4 -10 4 -5 0 -10
-5 -10 -11z"/>
<path d="M4435 3081 c-3 -5 -2 -12 3 -15 5 -3 9 1 9 9 0 17 -3 19 -12 6z"/>
<path d="M4395 3011 c-3 -5 -2 -12 3 -15 5 -3 9 1 9 9 0 17 -3 19 -12 6z"/>
<path d="M4355 2889 c-4 -6 -5 -12 -2 -15 2 -3 7 2 10 11 7 17 1 20 -8 4z"/>
<path d="M5109 2643 c-13 -16 -12 -17 4 -4 9 7 17 15 17 17 0 8 -8 3 -21 -13z"/>
</g>
</svg>
